<!-- Uploaded to: SVG Repo, www.svgrepo.com, Generator: SVG Repo Mixer Tools -->
<svg fill="#000000" height="24" width="24"  xmlns="http://www.w3.org/2000/svg" xmlns:xlink="http://www.w3.org/1999/xlink"
	 viewBox="0 0 24 24">
<g>
	<g>
		<path d="M286.693,79.554l-4.781-4.781l4.78-4.778c3.841-3.84,3.841-10.065,0.001-13.904c-3.84-3.841-10.065-3.84-13.904-0.001
			l-4.781,4.78l-4.78-4.78c-3.841-3.838-10.065-3.838-13.905,0c-3.84,3.841-3.84,10.065,0,13.905l4.78,4.78l-4.78,4.781
			c-3.84,3.84-3.84,10.065,0.001,13.904c3.739,3.737,10.086,3.816,13.904-0.001l4.778-4.78c0,0,4.78,4.78,4.781,4.781
			c3.739,3.739,10.088,3.815,13.905,0C290.533,89.618,290.533,83.394,286.693,79.554z"/>
	</g>
</g>
<g>
	<g>
		<path d="M35.469,184.279l4.78-4.78c3.84-3.84,3.84-10.064,0-13.905c-3.841-3.838-10.065-3.838-13.905,0l-4.78,4.78l-4.781-4.78
			c-3.838-3.838-10.064-3.84-13.904,0.001c-3.84,3.84-3.84,10.065,0.001,13.904l4.78,4.78l-4.78,4.78
			c-3.841,3.84-3.841,10.065-0.001,13.904c3.76,3.76,10.101,3.804,13.904,0.001l4.781-4.78c0,0,4.778,4.778,4.78,4.78
			c3.755,3.755,10.111,3.793,13.905,0c3.84-3.841,3.84-10.065,0-13.905L35.469,184.279z"/>
	</g>
</g>
<g>
	<g>
		<path d="M154.766,309.756l-4.78-4.78l4.78-4.78c3.838-3.84,3.838-10.064,0-13.905c-3.841-3.838-10.065-3.838-13.905,0l-4.78,4.78
			l-4.78-4.78c-3.841-3.838-10.065-3.838-13.905,0c-3.84,3.841-3.84,10.065,0,13.905l4.78,4.78l-4.78,4.78
			c-3.84,3.841-3.84,10.065,0,13.905c3.694,3.695,10.065,3.837,13.905,0l4.78-4.78c0,0,4.777,4.777,4.78,4.78
			c3.69,3.69,10.074,3.828,13.905,0C158.606,319.82,158.606,313.595,154.766,309.756z"/>
	</g>
</g>
<g>
	<g>
		<path d="M505.851,408.348l-48.814-48.814c-3.841-3.838-10.065-3.838-13.905,0c-3.84,3.841-3.84,10.065,0,13.905l48.814,48.814
			c0.298,0.298,1.281,3.545-1.51,10.772c-3.165,8.192-9.742,17.653-18.046,25.956c-8.303,8.305-17.764,14.882-25.956,18.046
			c-7.227,2.788-10.477,1.809-10.773,1.509L188.957,231.833c0.694-0.254,1.392-0.526,2.095-0.813c0.114-0.046,0.229-0.1,0.345-0.147
			c11.779-4.87,22.098-12.869,31.058-21.83c9.386-9.386,17.755-20.289,22.514-32.788c0.089-0.236,0.187-0.473,0.274-0.708
			l170.081,170.081c3.841,3.838,10.065,3.838,13.905,0c3.84-3.841,3.84-10.065,0-13.905l-187.19-187.187
			c-0.01-0.01-0.018-0.021-0.029-0.031c0,0-124.921-124.921-124.942-124.941c-2.822-2.813-7.918-6.155-16.207-6.155
			c-13.927,0-32.44,9.859-48.313,25.731C42.226,49.463,34.241,61.104,30.066,71.918c-6.99,18.099-1.167,27.667,2.926,31.762
			c0.01,0.01,0.022,0.021,0.033,0.031l65.693,65.695c3.841,3.838,10.065,3.838,13.905,0c3.84-3.841,3.84-10.065,0-13.905
			l-48.587-48.59c9.681-3.546,20.208-10.268,30.381-19.786c0.073-0.07,0.148-0.138,0.221-0.207
			c10.761-10.11,20.557-22.292,25.682-36.293c0,0,107.771,107.771,107.784,107.786c0.13,0.13,0.391,0.825,0.41,2.17
			c0.184,12.858-11.486,26.076-19.967,34.557c-8.255,8.258-18.13,16.2-29.609,19.248c-4.689,1.244-6.877,0.549-7.133,0.298
			l-31.372-31.373c-3.84-3.84-10.065-3.841-13.904-0.001c-3.841,3.84-3.841,10.065-0.001,13.904l31.386,31.388l263.841,263.841
			c4.156,4.154,9.743,6.147,16.217,6.147c13.837,0,31.723-9.107,48.321-25.703C510.658,448.521,518.883,421.38,505.851,408.348z
			 M101.671,44.263c-2.967,7.679-8.933,16.476-16.508,24.386c-8.929,9.323-22.041,21.329-35.75,21.533
			c-0.768,0.012-1.757,0.035-2.447-0.362c-0.026-0.016-0.052-0.031-0.067-0.046c-0.296-0.296-1.279-3.545,1.512-10.772
			c3.165-8.192,9.742-17.653,18.046-25.956c13.72-13.721,27.455-19.972,34.407-19.972c0.648,0,1.331,0.037,1.949,0.244
			c0.589,0.195,0.648,0.823,0.718,1.38C103.724,36.25,103.577,39.328,101.671,44.263z"/>
	</g>
</g>
</svg>