<svg xmlns="http://www.w3.org/2000/svg" width="23.108" height="24" viewBox="0 0 23.108 24">
  <path id="address" d="M11.713,1.237a.608.608,0,0,0-.318,0c-.089.024-.191.089-.663.455L2.484,8.109a4.849,4.849,0,0,0-.91.793,1.824,1.824,0,0,0-.29.593A4.849,4.849,0,0,0,1.216,10.7v8.8c0,.691,0,1.173.031,1.548a1.94,1.94,0,0,0,.168.74,1.825,1.825,0,0,0,.8.8,1.941,1.941,0,0,0,.74.168c.375.031.857.031,1.548.031H18.608c.691,0,1.173,0,1.548-.031a1.94,1.94,0,0,0,.74-.168,1.824,1.824,0,0,0,.8-.8,1.939,1.939,0,0,0,.168-.74c.031-.375.031-.857.031-1.548V10.7A4.846,4.846,0,0,0,21.825,9.5a1.823,1.823,0,0,0-.29-.593,4.847,4.847,0,0,0-.91-.793L12.376,1.693C11.9,1.326,11.8,1.262,11.713,1.237ZM11.077.063a1.824,1.824,0,0,1,.954,0,3.042,3.042,0,0,1,1.016.611l.075.059,8.249,6.416.065.05a5.42,5.42,0,0,1,1.077.98A3.041,3.041,0,0,1,23,9.167a5.419,5.419,0,0,1,.113,1.451v8.907c0,.659,0,1.191-.035,1.621a3.117,3.117,0,0,1-.3,1.193,3.041,3.041,0,0,1-1.329,1.329,3.117,3.117,0,0,1-1.193.3c-.431.035-.962.035-1.621.035H4.474c-.659,0-1.191,0-1.621-.035a3.117,3.117,0,0,1-1.193-.3A3.041,3.041,0,0,1,.331,22.34a3.117,3.117,0,0,1-.3-1.193C0,20.717,0,20.185,0,19.526V10.7q0-.042,0-.082A5.419,5.419,0,0,1,.113,9.167,3.041,3.041,0,0,1,.6,8.179,5.419,5.419,0,0,1,1.673,7.2l.065-.05L9.986.733l.075-.059A3.042,3.042,0,0,1,11.077.063ZM6.691,14.289a.608.608,0,0,1,.74.437,4.258,4.258,0,0,0,8.245,0,.608.608,0,0,1,1.178.3,5.475,5.475,0,0,1-10.6,0A.608.608,0,0,1,6.691,14.289Z" fill-rule="evenodd"/>
</svg>
