<svg xmlns="http://www.w3.org/2000/svg" width="24" height="24" viewBox="0 0 24 24">
  <path id="carpet_area" d="M0,.632A.632.632,0,0,1,.632,0H23.368a.632.632,0,1,1,0,1.263H.632A.632.632,0,0,1,0,.632ZM11.65,3.9a.631.631,0,0,1,.7,0L16.14,6.422a.632.632,0,1,1-.7,1.051L12.632,5.6V18.4l2.807-1.872a.632.632,0,1,1,.7,1.051L12.35,20.1a.632.632,0,0,1-.7,0L7.86,17.578a.632.632,0,0,1,.7-1.051L11.368,18.4V5.6L8.561,7.473a.632.632,0,0,1-.7-1.051ZM0,23.368a.632.632,0,0,1,.632-.632H23.368a.632.632,0,0,1,0,1.263H.632A.632.632,0,0,1,0,23.368Z" fill="#435ebe" fill-rule="evenodd"/>
</svg>
