<svg xmlns="http://www.w3.org/2000/svg" xmlns:xlink="http://www.w3.org/1999/xlink" width="341" height="50" viewBox="0 0 341 50">
  <defs>
    <clipPath id="clip-path">
      <rect id="back" width="20" height="20" transform="translate(35 125)"/>
    </clipPath>
  </defs>
  <g id="City" transform="translate(1 1)">
    <g id="click_area" data-name="click area" fill="#fff" stroke="rgba(0,0,0,0.1)" stroke-width="1">
      <rect width="339" height="48" rx="10" stroke="none"/>
      <rect x="-0.5" y="-0.5" width="340" height="49" rx="10.5" fill="none"/>
    </g>
    <g id="Search_" data-name="Search " transform="translate(-21 -111)">
      <rect id="back-2" data-name="back" width="20" height="20" transform="translate(326 125)" fill="#f5f5f5" opacity="0"/>
      <g id="Text">
        <text id="All_Cities" data-name="All Cities" transform="translate(69 125)" font-size="14" font-family="Manrope-Regular, Manrope" opacity="0.5"><tspan x="0" y="15">All Cities</tspan></text>
      </g>
      <g id="location" clip-path="url(#clip-path)">
        <g id="location-2" data-name="location" transform="translate(35 125)">
          <g id="Group_5049" data-name="Group 5049">
            <g id="Group_5048" data-name="Group 5048">
              <path id="Path_24185" data-name="Path 24185" d="M10,0A7.229,7.229,0,0,0,2.779,7.221c0,5.528,6.42,12.27,6.693,12.555a.732.732,0,0,0,1.055,0c.273-.284,6.693-7.027,6.693-12.555A7.229,7.229,0,0,0,10,0Zm0,10.547a3.326,3.326,0,1,1,3.326-3.326A3.33,3.33,0,0,1,10,10.547Z"/>
              <path id="Path_24186" data-name="Path 24186" d="M4.72,15.661H2.568a.745.745,0,0,0-.752.7.732.732,0,0,0,.731.767H5.054a.488.488,0,0,0,.4-.766C5.122,15.882,5.044,15.661,4.72,15.661Z"/>
              <path id="Path_24187" data-name="Path 24187" d="M17.432,15.661H15.28c-.323,0-.4.22-.734.7a.488.488,0,0,0,.4.766h2.507a.732.732,0,0,0,.731-.767A.745.745,0,0,0,17.432,15.661Z"/>
            </g>
          </g>
        </g>
      </g>
    </g>
  </g>
</svg>
