<svg xmlns="http://www.w3.org/2000/svg" width="21" height="21" viewBox="0 0 21 21">
  <path id="copyIcon" d="M5.179,2h7.643c.542,0,.979,0,1.333.029a2.564,2.564,0,0,1,.981.244,2.5,2.5,0,0,1,1.093,1.093,2.563,2.563,0,0,1,.244.981c.029.354.029.791.029,1.333V8h2.321c.542,0,.979,0,1.333.029a2.564,2.564,0,0,1,.981.244,2.5,2.5,0,0,1,1.093,1.093,2.563,2.563,0,0,1,.244.981c.029.354.029.791.029,1.333v7.643c0,.542,0,.979-.029,1.333a2.564,2.564,0,0,1-.244.981,2.5,2.5,0,0,1-1.093,1.093,2.564,2.564,0,0,1-.981.244C19.8,23,19.363,23,18.821,23H11.179c-.542,0-.979,0-1.333-.029a2.563,2.563,0,0,1-.981-.244,2.5,2.5,0,0,1-1.093-1.093,2.564,2.564,0,0,1-.244-.981C7.5,20.3,7.5,19.863,7.5,19.321V17H5.179c-.542,0-.979,0-1.333-.029a2.563,2.563,0,0,1-.981-.244,2.5,2.5,0,0,1-1.093-1.093,2.564,2.564,0,0,1-.244-.981C1.5,14.3,1.5,13.863,1.5,13.321V5.679c0-.542,0-.979.029-1.333a2.563,2.563,0,0,1,.244-.981A2.5,2.5,0,0,1,2.865,2.272a2.563,2.563,0,0,1,.981-.244C4.2,2,4.637,2,5.179,2ZM8.5,17v2.3c0,.568,0,.965.026,1.273a1.6,1.6,0,0,0,.138.608,1.5,1.5,0,0,0,.656.656,1.6,1.6,0,0,0,.608.138c.308.025.7.026,1.273.026h7.6c.568,0,.965,0,1.273-.026a1.6,1.6,0,0,0,.608-.138,1.5,1.5,0,0,0,.656-.656,1.6,1.6,0,0,0,.138-.608c.025-.308.026-.7.026-1.273V11.7c0-.568,0-.964-.026-1.273a1.6,1.6,0,0,0-.138-.608,1.5,1.5,0,0,0-.656-.656,1.6,1.6,0,0,0-.608-.138C19.764,9,19.368,9,18.8,9H16.5v4.321c0,.542,0,.979-.029,1.333a2.564,2.564,0,0,1-.244.981,2.5,2.5,0,0,1-1.093,1.093,2.564,2.564,0,0,1-.981.244C13.8,17,13.363,17,12.821,17Zm7-3.7c0,.568,0,.964-.026,1.273a1.6,1.6,0,0,1-.138.608,1.5,1.5,0,0,1-.656.656,1.6,1.6,0,0,1-.608.138c-.308.025-.7.026-1.273.026H5.2c-.568,0-.964,0-1.273-.026a1.6,1.6,0,0,1-.608-.138,1.5,1.5,0,0,1-.656-.656,1.6,1.6,0,0,1-.138-.608c-.025-.308-.026-.7-.026-1.273V5.7c0-.568,0-.964.026-1.273a1.6,1.6,0,0,1,.138-.608,1.5,1.5,0,0,1,.656-.656,1.6,1.6,0,0,1,.608-.138C4.236,3,4.632,3,5.2,3h7.6c.568,0,.964,0,1.273.026a1.6,1.6,0,0,1,.608.138,1.5,1.5,0,0,1,.656.656,1.6,1.6,0,0,1,.138.608c.025.308.026.7.026,1.273Z" transform="translate(-1.5 -2)" fill="#435ebe" fill-rule="evenodd"/>
</svg>
