<svg id="days" xmlns="http://www.w3.org/2000/svg" xmlns:xlink="http://www.w3.org/1999/xlink" width="24" height="24" viewBox="0 0 24 24">
  <defs>
    <clipPath id="clip-path">
      <rect id="back" width="24" height="24" transform="translate(-4 -4)" fill="#087c7c"/>
    </clipPath>
  </defs>
  <g id="calender" transform="translate(4 4)" clip-path="url(#clip-path)">
    <path id="date" d="M10.51,14.085A2.213,2.213,0,0,0,10,13.693a2.325,2.325,0,0,0,.487-.56,1.292,1.292,0,0,0,.175-.686,1.372,1.372,0,0,0-.119-.57,1.321,1.321,0,0,0-.355-.462,1.648,1.648,0,0,0-.557-.307A2.231,2.231,0,0,0,8.923,11a2.45,2.45,0,0,0-.806.127,1.856,1.856,0,0,0-.6.336,1.584,1.584,0,0,0-.37.438.91.91,0,0,0-.127.438.455.455,0,0,0,.134.346.409.409,0,0,0,.294.129.555.555,0,0,0,.243-.049.275.275,0,0,0,.144-.131l.151-.331a1.329,1.329,0,0,1,.175-.287.643.643,0,0,1,.243-.18,1.025,1.025,0,0,1,.4-.068A.75.75,0,0,1,9.38,12a.73.73,0,0,1,.214.531.754.754,0,0,1-.265.621.973.973,0,0,1-.635.217l-.146,0a.665.665,0,0,0-.428.117.38.38,0,0,0-.146.309.392.392,0,0,0,.119.307.487.487,0,0,0,.341.11A1.218,1.218,0,0,0,8.65,14.2a1.457,1.457,0,0,1,.243-.017.942.942,0,0,1,.713.265,1.015,1.015,0,0,1,.243.73,1.034,1.034,0,0,1-.127.567,1,1,0,0,1-.38.363,1.019,1.019,0,0,1-.487.122.847.847,0,0,1-.672-.27,2.708,2.708,0,0,1-.448-.828.307.307,0,0,0-.136-.158.392.392,0,0,0-.217-.068.523.523,0,0,0-.375.141.487.487,0,0,0-.151.375,1.146,1.146,0,0,0,.114.441,1.963,1.963,0,0,0,.372.533,1.99,1.99,0,0,0,.618.448,2.059,2.059,0,0,0,.862.173,2.39,2.39,0,0,0,.862-.151,2.028,2.028,0,0,0,.674-.416,1.81,1.81,0,0,0,.431-.606,1.769,1.769,0,0,0,.146-.7,1.46,1.46,0,0,0-.107-.565A1.483,1.483,0,0,0,10.51,14.085Z" transform="translate(-3 -3)" fill="#087c7c"/>
    <path id="date-2" data-name="date" d="M14.6,11.16A.411.411,0,0,0,14.262,11,.353.353,0,0,0,14,11.07a4.689,4.689,0,0,0-.292.385,3.037,3.037,0,0,1-1.29,1.044,2.981,2.981,0,0,0-.453.243.353.353,0,0,0-.129.312.428.428,0,0,0,.129.309.4.4,0,0,0,.292.124,3.289,3.289,0,0,0,1.368-.779v3.651l.012,0a.7.7,0,0,0,.148.487.5.5,0,0,0,.392.163q.55,0,.55-.806V11.612A.713.713,0,0,0,14.6,11.16Z" transform="translate(-3 -3)" fill="#087c7c"/>
    <path id="cal" d="M20.42,2.6a2.049,2.049,0,0,0-1.46-.6h-.8V1.772A1.75,1.75,0,0,0,17.677.556L17.648.524,17.641.517a1.758,1.758,0,0,0-2.994,1.248v.219H7.35V1.765A1.75,1.75,0,0,0,6.864.548L6.834.517,6.828.51A1.758,1.758,0,0,0,3.834,1.758v.219h-.8l-.007,0A2.059,2.059,0,0,0,.976,4.026V19.943a2.049,2.049,0,0,0,.574,1.421l.029.032a2.049,2.049,0,0,0,1.46.6H18.96a2.057,2.057,0,0,0,2.064-2.061V4.055A2.049,2.049,0,0,0,20.42,2.6Zm-4.8-.131V1.753a.774.774,0,0,1,.229-.548l.005-.005a.769.769,0,0,1,1.088.005l.019.019a.774.774,0,0,1,.207.528V3.174c0,.013,0,.026,0,.039a.759.759,0,0,1-.783.734.774.774,0,0,1-.764-.774Zm-10.8.711V2.464l.01-.711a.774.774,0,0,1,.226-.548L5.058,1.2a.769.769,0,0,1,1.088.005l.019.019a.774.774,0,0,1,.207.528V3.174a.738.738,0,0,1,0,.109.73.73,0,0,1-.79.665.73.73,0,0,1-.764-.774Zm-2.848.854A1.076,1.076,0,0,1,3.04,2.958h.8v.219A1.747,1.747,0,0,0,5.618,4.934a1.709,1.709,0,0,0,1.728-1.76V2.955h7.3v.219A1.711,1.711,0,0,0,16.4,4.934a1.675,1.675,0,0,0,1.757-1.76V2.955h.793a1.072,1.072,0,0,1,1.071,1.071V7.081H1.969ZM20.023,19.946a1.072,1.072,0,0,1-1.071,1.071H3.04a1.069,1.069,0,0,1-.757-.329l-.022-.019a1.066,1.066,0,0,1-.292-.73V8.064H20.023Z" transform="translate(-3 -3)" fill="#087c7c"/>
  </g>
</svg>
