<svg id="del_account" xmlns="http://www.w3.org/2000/svg" width="23.999" height="24.855" viewBox="0 0 23.999 24.855">
  <path id="Path_2386" data-name="Path 2386" d="M-732.719,457.92a5.925,5.925,0,0,0-3.731-1.756l-.028-.455a1.207,1.207,0,0,0-.216-.692,2.367,2.367,0,0,0-.206-.262,5.417,5.417,0,0,0-3.272-1.762A6.11,6.11,0,0,0-739,449.3a6.02,6.02,0,0,0-1.69-4.309,6,6,0,0,0-4.3-1.7h0a5.8,5.8,0,0,0-5.992,5.978,6.161,6.161,0,0,0,1.17,3.715,5.545,5.545,0,0,0-4.68,5.107c-.061.862-.145,1.744-.226,2.6-.05.526-.1,1.069-.148,1.607-.011.126-.025.257-.04.394a7.21,7.21,0,0,0-.053,1.493,4.352,4.352,0,0,0,1.425,2.846,4.452,4.452,0,0,0,2.969,1.114c1.1,0,2.251,0,3.634,0h5.462c.1,0,.19-.008.255-.014l.049,0,2.562-.194-.016-.016a6,6,0,0,0,1.623.227h.02a5.948,5.948,0,0,0,4.238-1.757,5.987,5.987,0,0,0,1.758-4.245A5.947,5.947,0,0,0-732.719,457.92Zm-12.269-13.449h0a4.621,4.621,0,0,1,4.809,4.827,4.622,4.622,0,0,1-4.812,4.812H-745a4.625,4.625,0,0,1-4.8-4.839A4.62,4.62,0,0,1-744.988,444.471Zm3.521,22.491-5.461,0-3.632,0a3.169,3.169,0,0,1-3.22-2.891,9.351,9.351,0,0,1,.094-1.674c.121-1.408.275-2.813.375-4.222a4.342,4.342,0,0,1,4.262-4.065h.012a.778.778,0,0,1,.647.269,3.611,3.611,0,0,0,2.3,1.258,6.371,6.371,0,0,0,1.146.107,5.438,5.438,0,0,0,2.027-.385,2.969,2.969,0,0,0,1.268-.909.847.847,0,0,1,.7-.34h.039a4.293,4.293,0,0,1,3.14,1.443,1.361,1.361,0,0,1,.106.139c.008.011,0,.031,0,.041a6.3,6.3,0,0,0-5.4,4.436,6.3,6.3,0,0,0,1.8,6.777C-741.329,466.953-741.4,466.962-741.467,466.962Zm4.494,0h-.016a4.818,4.818,0,0,1-4.79-4.863,4.819,4.819,0,0,1,4.831-4.773h.024a4.825,4.825,0,0,1,4.766,4.814A4.82,4.82,0,0,1-736.974,466.961Z" transform="translate(754.977 -443.29)" fill="#435ebe"/>
  <path id="Path_2387" data-name="Path 2387" d="M-486.813,748.922l-.6,0H-489.3l-.62,0a.8.8,0,0,0-.852.795.8.8,0,0,0,.838.81l1.564,0,1.567,0a.8.8,0,0,0,.84-.808A.807.807,0,0,0-486.813,748.922Zm0,0-.6,0H-489.3l-.62,0a.8.8,0,0,0-.852.795.8.8,0,0,0,.838.81l1.564,0,1.567,0a.8.8,0,0,0,.84-.808A.807.807,0,0,0-486.813,748.922Zm0,0-.6,0H-489.3l-.62,0a.8.8,0,0,0-.852.795.8.8,0,0,0,.838.81l1.564,0,1.567,0a.8.8,0,0,0,.84-.808A.807.807,0,0,0-486.813,748.922Zm0,0-.6,0H-489.3l-.62,0a.8.8,0,0,0-.852.795.8.8,0,0,0,.838.81l1.564,0,1.567,0a.8.8,0,0,0,.84-.808A.807.807,0,0,0-486.813,748.922Zm0,0-.6,0H-489.3l-.62,0a.8.8,0,0,0-.852.795.8.8,0,0,0,.838.81l1.564,0,1.567,0a.8.8,0,0,0,.84-.808A.807.807,0,0,0-486.813,748.922Zm0,0-.6,0H-489.3l-.62,0a.8.8,0,0,0-.852.795.8.8,0,0,0,.838.81l1.564,0,1.567,0a.8.8,0,0,0,.84-.808A.807.807,0,0,0-486.813,748.922Zm0,0-.6,0H-489.3l-.62,0a.8.8,0,0,0-.852.795.8.8,0,0,0,.838.81l1.564,0,1.567,0a.8.8,0,0,0,.84-.808A.807.807,0,0,0-486.813,748.922Z" transform="translate(506.373 -730.871)" fill="#435ebe"/>
</svg>
