<svg xmlns="http://www.w3.org/2000/svg" width="65.5" height="67" viewBox="0 0 65.5 67">
    <path data-name="Path 388" d="M994.559 737.364a5.684 5.684 0 0 0 2.849.24v-.556s-2.5-.185-2.849.316z" transform="translate(-966.17 -705.826)" style="fill:#dae6f7"/>
    <g data-name="Group 511">
        <path data-name="Path 389" d="M921.372 726.326a4.576 4.576 0 0 0 1.776.38 1.036 1.036 0 0 1 .956 1.033v4.86h-.432l-.027-4.243a1.036 1.036 0 0 0-1.082-1.028l-1.191.053-.495-.505z" transform="translate(-901.001 -696.345)" style="fill:#087c7c"/>
    </g>
    <g data-name="Group 512">
        <path data-name="Rectangle 118" transform="translate(30.973 31.355)" style="fill:#087c7c" d="M0 0h.561v4.646H0z"/>
    </g>
    <g data-name="Group 514">
        <g data-name="Group 513">
            <path data-name="Path 390" d="M1113.869 830.922a7.68 7.68 0 0 0-2.07-2.557l.175-.227a7.823 7.823 0 0 1 2.158 2.67z" transform="translate(-1069.865 -786.416)" style="fill:#087c7c"/>
        </g>
    </g>
    <g data-name="Group 516">
        <g data-name="Group 515">
            <path data-name="Path 391" d="M1121.519 785.369a.143.143 0 0 1-.092-.253 45.686 45.686 0 0 1 5.44-3.872 5.051 5.051 0 0 0 2.11-2.439c.533-1.29 1.545-2.869 3.338-3.059a2.938 2.938 0 0 1 2.716 1.178 4.535 4.535 0 0 1 .98 3.276.9.9 0 0 1-.729.55c-.784.144-2.141-.313-3.6-2.031a.143.143 0 0 1 .218-.185c1.38 1.625 2.624 2.065 3.33 1.935a.617.617 0 0 0 .511-.364 4.376 4.376 0 0 0-.934-3 2.631 2.631 0 0 0-2.462-1.071c-1.653.175-2.6 1.665-3.1 2.883a5.34 5.34 0 0 1-2.232 2.578 45.4 45.4 0 0 0-5.4 3.844.143.143 0 0 1-.094.03z" transform="translate(-1078.137 -740.017)" style="fill:#087c7c"/>
        </g>
    </g>
    <g data-name="Group 518">
        <g data-name="Group 517">
            <path data-name="Path 392" d="M1221.31 832.837c-1.531 0-2.542-.411-2.857-1.164s.112-1.782 1.218-2.854l.2.205c-1 .971-1.422 1.9-1.153 2.539.278.667 1.26 1.017 2.768.986a3.173 3.173 0 0 0 2.419-.869 2.089 2.089 0 0 0 .458-1.475l.3.048a2.242 2.242 0 0 1-.54 1.615 3.437 3.437 0 0 1-2.629.967z" transform="translate(-1164.017 -787.009)" style="fill:#087c7c"/>
        </g>
    </g>
    <g data-name="Group 520">
        <g data-name="Group 519">
            <path data-name="Path 393" d="M1224.642 858.871c-.993 0-1.52-.142-1.786-.456-.328-.389-.224-.966-.013-1.87l.279.065c-.185.794-.289 1.335-.047 1.621.268.317 1.023.413 2.525.321a2.164 2.164 0 0 0 1.707-.7 1.8 1.8 0 0 0 .145-1.5l.276-.074a2.065 2.065 0 0 1-.188 1.741 2.423 2.423 0 0 1-1.921.817c-.368.024-.692.035-.977.035z" transform="translate(-1167.823 -811.307)" style="fill:#087c7c"/>
        </g>
    </g>
    <g data-name="Group 522">
        <g data-name="Group 521">
            <path data-name="Path 394" d="M1080.107 882.772c-2.7 0-5.842-3.786-5.985-3.959l.221-.181c.036.044 3.679 4.434 6.32 3.79 2.7-.658 10.827-7.563 10.908-7.633l.186.218c-.336.286-8.265 7.019-11.026 7.693a2.631 2.631 0 0 1-.624.072z" transform="translate(-1036.398 -827.637)" style="fill:#087c7c"/>
        </g>
    </g>
    <g data-name="Group 524">
        <g data-name="Group 523">
            <path data-name="Path 395" d="M824.391 868.233a1.253 1.253 0 0 1-.107.016 2.522 2.522 0 0 1-.319.017 7.01 7.01 0 0 1-.393-.014 4.2 4.2 0 0 0-.441-.01 4.493 4.493 0 0 1-3.651-1.555 4.586 4.586 0 0 1-1.048-3.91l1.922-9.856.019-.1.28.054-.009.045-1.932 9.907a4.294 4.294 0 0 0 .984 3.667 4.2 4.2 0 0 0 3.42 1.457 4.37 4.37 0 0 1 .471.011 3.612 3.612 0 0 0 .7-.007.353.353 0 0 0 .055-.008z" transform="translate(-810.369 -808.071)" style="fill:#087c7c"/>
        </g>
    </g>
    <g data-name="Group 526">
        <g data-name="Group 525">
            <path data-name="Path 396" d="m1233.269 734.474-4.162 10.188a.372.372 0 0 1-.441.218l-5.76-1.562a.372.372 0 0 1-.242-.512l.231-.507v-.009l.233-.532a.1.1 0 0 1 .125-.049.1.1 0 0 1 .049.125l-.1.225a.265.265 0 0 0 .174.362l4.591 1.243a.4.4 0 0 0 .477-.234l3.567-8.606a.1.1 0 0 0-.062-.128l-5.109-1.48a.1.1 0 0 0-.113.051l-2.31 5a.1.1 0 0 1-.127.046.1.1 0 0 1-.047-.127l2.333-5.043.018-.04.244-.526a.525.525 0 0 1 .613-.286l5.463 1.48a.525.525 0 0 1 .355.703z" transform="translate(-1167.809 -701.564)" style="fill:#212121"/>
        </g>
    </g>
    <g data-name="Group 527">
        <path data-name="Path 397" d="M804.3 508.367a.367.367 0 0 1-.043.518l-.223.188-4.678 3.927s.285 2.291.634 5.243l.059.5c.489 4.152 1.078 9.384 1.191 11.462h-25.114v-3.467l15.1-6.956a7.51 7.51 0 0 1 2.728-.678 4.445 4.445 0 0 0 2.6-.826c.917-.732.637-2.191-.172-2.055a6.181 6.181 0 0 1-1.466.032.365.365 0 0 1-.322-.284c0-.022.1-.393 1.206-.438a2.146 2.146 0 0 0 2.033-1.889.243.243 0 0 0 0-.025.655.655 0 0 0-.569-.593 2.056 2.056 0 0 0-.43-.054 4.453 4.453 0 0 0-2.309.326.563.563 0 0 1 .31-.6 3.593 3.593 0 0 1 1.273-.3c1.161-.1 2.562-.741 2.861-1.514a.472.472 0 0 0 .017-.048c0-.012.007-.024.01-.035a1.035 1.035 0 0 0 .027-.291.2.2 0 0 0 0-.024c-.082-1.041-1.844-1.9-6.406.642a.366.366 0 0 1-.177.046h-.8a.371.371 0 0 1-.3-.585l.185-.067a3.34 3.34 0 0 1 .692-.173c.479-.068.63-.266.652-.46a.434.434 0 0 0-.411-.47 4.372 4.372 0 0 0-2.385.362 1.545 1.545 0 0 0-.822.745 11.372 11.372 0 0 0-.527 1.218 2.045 2.045 0 0 1-1.234 1.237 911.896 911.896 0 0 0-6.833 2.449.242.242 0 0 1-.235-.415 3.234 3.234 0 0 0 1.1-1.395s.741-1.92-9.026-2.057h-.964a.628.628 0 0 1-.588-.839 29.437 29.437 0 0 1 1.79-4.213v-.386a.561.561 0 0 0-.437-.549.577.577 0 0 0-.121-.014.556.556 0 0 0-.521.365l-1.459 3.93-.491 1.323s-4.646-1.325-5.657-4.181c-1-2.819 8.537-10.805 8.783-11.008l.373-3.1a.373.373 0 0 1 .288-.321.376.376 0 0 0 .292-.369.367.367 0 0 0-.085-.235 6.838 6.838 0 0 1-1.373-3.282c-.377-2.313-.113-9.891 3.268-12.641a9.981 9.981 0 0 0 2.647-3.364c1.252-2.559 4.521-6.147 12.972-5.75 12.995.612 15.554 7.546 15.621 18.016.059 9.144-9.614 13.944-16.484 13.507a.2.2 0 0 1 .009-.391c3.31-.038 8.659-.755 10.82-4.755 3.232-5.982 1.077-17.4-4.983-20.939 0 0-3.164 3.467-9.763 3.127a13.891 13.891 0 0 1 .055 4.561.227.227 0 0 0 .175.267 5.132 5.132 0 0 1 1.584.032.67.67 0 0 1 .543.748.662.662 0 0 1-.171.341.893.893 0 0 1-.6.187 1.066 1.066 0 0 0-.758.408 1.07 1.07 0 0 1-.249.225 4.929 4.929 0 0 1-1.232.573c-2.521.8 1.754 3.807-6.7 5.108a2.235 2.235 0 0 1-.66 0c-.828-.121-3.26-.149-2.962 3.769.335 4.395 3.87 4.811 4.383 3.45a.5.5 0 0 1 .961.073 2.117 2.117 0 0 0 1.614 1.622.569.569 0 0 1 .351.822 3.69 3.69 0 0 1-3.337 1.873l.454 3.146a13.229 13.229 0 0 1 4.827-.335c.148.021.294.047.437.077h.011a.627.627 0 0 1 .356.225c.282.355 1.2 1.145 3.814 1.145 2.2 0 3.177-.793 3.591-1.343l.007-.009a1.258 1.258 0 0 1 1.007-.507h1.438a4.084 4.084 0 0 1 2.261.683 33.263 33.263 0 0 1 6.667 5.732z" transform="translate(-762.172 -466.879)" style="fill:#087c7c"/>
    </g>
    <g data-name="Group 528">
        <path data-name="Path 398" d="M1040.893 577.781a.331.331 0 0 1-.214-.077 5.218 5.218 0 0 0-3.458-1.069.334.334 0 0 1-.064-.665 5.81 5.81 0 0 1 3.949 1.22.334.334 0 0 1-.214.59z" transform="translate(-1003.571 -563.361)" style="fill:#087c7c"/>
    </g>
    <g data-name="Group 529" transform="translate(25.107 18.112)">
        <ellipse data-name="Ellipse 17" cx=".741" cy="1.246" rx=".741" ry="1.246" style="fill:#087c7c"/>
    </g>
    <g data-name="Group 530" transform="translate(34.219 16.651)">
        <ellipse data-name="Ellipse 18" cx=".741" cy="1.246" rx=".741" ry="1.246" style="fill:#087c7c"/>
    </g>
    <g data-name="Group 531">
        <path data-name="Path 399" d="M995.349 646.457a.334.334 0 0 1-.27-.53 3.316 3.316 0 0 1 5.194-.307.334.334 0 0 1-.444.5 2.655 2.655 0 0 0-4.211.2.334.334 0 0 1-.269.137z" transform="translate(-966.561 -623.999)" style="fill:#087c7c"/>
    </g>
    <g data-name="Group 532">
        <path data-name="Path 400" d="M1070 844.886c0-.011.007-.024.01-.035a1.025 1.025 0 0 0 .027-.288.746.746 0 0 1-.037.323z" transform="translate(-1032.913 -800.958)" style="fill:#27447f"/>
    </g>
    <path data-name="Path 402" d="M1166.077 707.444v4.562a.631.631 0 0 1-.631.631.488.488 0 0 0-.45.674 5.8 5.8 0 0 0 .324.667.135.135 0 0 1-.141.2 3.408 3.408 0 0 1-2.011-1.351.491.491 0 0 0-.386-.19h-4.76a.631.631 0 0 1-.631-.631v-4.562a.632.632 0 0 1 .631-.631h7.423a.632.632 0 0 1 .632.631z" transform="translate(-1110.032 -679.082)" style="fill:#4d5454"/>
    <path data-name="Path 403" d="M1186.768 723.682a.116.116 0 0 1-.165 0l-1.07-1.07-1.07 1.07a.116.116 0 0 1-.165 0 .117.117 0 0 1 0-.165l1.07-1.07-1.07-1.07a.117.117 0 0 1 0-.165.116.116 0 0 1 .165 0l1.07 1.07 1.07-1.07a.117.117 0 0 1 .165 0 .117.117 0 0 1 0 .165l-1.07 1.07 1.07 1.07a.117.117 0 0 1 0 .165z" transform="translate(-1133.957 -691.81)" style="fill:#fff"/>
    <path data-name="Line 1" transform="translate(1.5 62.992)" style="stroke-miterlimit:10;stroke:#087c7c;stroke-linecap:round;stroke-width:3px;fill:#087c7c" d="M0 0h50"/>
    <path data-name="Path 404" d="M772.821 718.812a33.764 33.764 0 0 0-4.4 5.222 5.943 5.943 0 0 0 1.769 8.318v.193l-.491 1.311s-4.646-1.313-5.657-4.141c-.999-2.792 8.534-10.702 8.779-10.903z" transform="translate(-762.213 -689.649)" style="fill:#006865"/>
</svg>
