<svg xmlns="http://www.w3.org/2000/svg" width="24" height="19.428" viewBox="0 0 24 19.428">
  <g id="disabled_email" transform="translate(0 -2)" opacity="0.3">
    <path id="Path_3" data-name="Path 3" d="M6.032,2H17.968c.939,0,1.678,0,2.273.049a4.115,4.115,0,0,1,1.575.387,4,4,0,0,1,1.748,1.748,4.115,4.115,0,0,1,.387,1.575v.013a.571.571,0,0,1,.024.391C24,6.68,24,7.295,24,8.032V15.4c0,.939,0,1.678-.049,2.273a4.115,4.115,0,0,1-.387,1.575,4,4,0,0,1-1.748,1.748,4.113,4.113,0,0,1-1.575.387c-.6.049-1.334.049-2.273.049H6.032c-.939,0-1.678,0-2.273-.049a4.113,4.113,0,0,1-1.575-.387A4,4,0,0,1,.436,19.244,4.114,4.114,0,0,1,.049,17.67C0,17.075,0,16.335,0,15.4V8.032C0,7.295,0,6.68.024,6.162a.571.571,0,0,1,.024-.391V5.759A4.114,4.114,0,0,1,.436,4.184,4,4,0,0,1,2.184,2.436a4.114,4.114,0,0,1,1.575-.387C4.354,2,5.093,2,6.032,2ZM1.145,7.1c0,.287,0,.6,0,.958v7.314c0,.97,0,1.662.045,2.205a3.007,3.007,0,0,0,.267,1.149A2.857,2.857,0,0,0,2.7,19.974a3.006,3.006,0,0,0,1.149.267c.543.044,1.236.045,2.205.045H17.943c.969,0,1.662,0,2.205-.045a3.005,3.005,0,0,0,1.149-.267,2.857,2.857,0,0,0,1.249-1.249,3.005,3.005,0,0,0,.267-1.149c.044-.543.045-1.236.045-2.205V8.057c0-.354,0-.671,0-.958L14.425,13l-.091.064a5.292,5.292,0,0,1-1.643.919,2.857,2.857,0,0,1-1.382,0,5.29,5.29,0,0,1-1.643-.919L9.575,13ZM22.8,5.741l-9.033,6.323a4.836,4.836,0,0,1-1.355.809,1.716,1.716,0,0,1-.829,0,4.834,4.834,0,0,1-1.355-.809L1.2,5.741A2.83,2.83,0,0,1,1.454,4.7,2.857,2.857,0,0,1,2.7,3.454a3.007,3.007,0,0,1,1.149-.267c.543-.044,1.236-.045,2.205-.045H17.943c.969,0,1.662,0,2.205.045a3.007,3.007,0,0,1,1.149.267A2.857,2.857,0,0,1,22.546,4.7,2.829,2.829,0,0,1,22.8,5.741Z" fill-rule="evenodd"/>
  </g>
</svg>
