<svg xmlns="http://www.w3.org/2000/svg" width="24" height="24" viewBox="0 0 24 24">
    <path data-name="Rectangle 84" style="fill:none" d="M0 0h24v24H0z"/>
    <g data-name="Group 335">
        <path data-name="Path 218" d="M439.856 643.92v4.131a3.35 3.35 0 0 0 .079.769 2.564 2.564 0 0 0 2.519 1.954c1.6.008 3.2 0 4.8 0h.368v14.4a2.677 2.677 0 0 1-2.739 2.738q-6.76.008-13.519 0a2.678 2.678 0 0 1-2.741-2.736v-18.531a2.676 2.676 0 0 1 2.724-2.725c2.761-.007 5.523 0 8.284 0zm-.2 16.435c.713.711 1.416 1.414 2.122 2.114a.87.87 0 0 0 1.271.063.858.858 0 0 0-.05-1.28q-.961-.959-1.926-1.913c-.068-.068-.133-.14-.2-.205a4.291 4.291 0 0 0-1.025-5.79 4.346 4.346 0 0 0-5.627.381 4.268 4.268 0 0 0-.465 5.558 4.376 4.376 0 0 0 5.901 1.072z" transform="translate(-426.128 -643.919)" style="fill:#087c7c"/>
        <path data-name="Path 219" d="M608.341 643.949a1.185 1.185 0 0 1 1.087.342c1.422 1.3 2.858 2.583 4.291 3.87a.949.949 0 0 1 .375.7c-.089 0-.17.012-.251.012h-4.568a.838.838 0 0 1-.933-.936v-3.753z" transform="translate(-592.596 -643.926)" style="fill:#087c7c"/>
        <path data-name="Path 220" d="M517.436 790.437a2.466 2.466 0 1 1-2.436-2.472 2.474 2.474 0 0 1 2.436 2.472z" transform="translate(-503.849 -777.57)" style="fill:#087c7c"/>
    </g>
</svg>
