<svg xmlns="http://www.w3.org/2000/svg" width="18" height="18" viewBox="0 0 18 18">
  <path id="icon_delete" d="M5.684.474A.474.474,0,0,1,6.158,0h5.684a.474.474,0,1,1,0,.947H6.158A.474.474,0,0,1,5.684.474ZM2.365,2.842H.474a.474.474,0,1,0,0,.947H1.925l.636,9.544c.049.73.087,1.307.155,1.77a3.394,3.394,0,0,0,.377,1.222,3.316,3.316,0,0,0,1.435,1.343,3.394,3.394,0,0,0,1.245.295C6.24,18,6.818,18,7.55,18h2.9c.732,0,1.31,0,1.776-.037a3.394,3.394,0,0,0,1.245-.295,3.316,3.316,0,0,0,1.435-1.343,3.394,3.394,0,0,0,.377-1.222c.068-.463.106-1.04.155-1.77l.636-9.544h1.452a.474.474,0,1,0,0-.947H2.365Zm12.761.947H2.875l.631,9.46c.05.755.087,1.294.149,1.716a2.475,2.475,0,0,0,.263.891,2.368,2.368,0,0,0,1.025.959,2.474,2.474,0,0,0,.907.2c.425.034.965.034,1.722.034h2.86c.757,0,1.3,0,1.722-.034a2.474,2.474,0,0,0,.907-.2,2.368,2.368,0,0,0,1.025-.959,2.474,2.474,0,0,0,.263-.891c.062-.422.1-.961.149-1.716ZM7.105,7.105a.474.474,0,0,1,.474.474v4.737a.474.474,0,1,1-.947,0V7.579A.474.474,0,0,1,7.105,7.105Zm3.789,0a.474.474,0,0,1,.474.474v4.737a.474.474,0,1,1-.947,0V7.579A.474.474,0,0,1,10.895,7.105Z" fill-rule="evenodd"/>
</svg>
