<svg xmlns="http://www.w3.org/2000/svg" width="18" height="18" viewBox="0 0 18 18">
  <path id="icon_sold" d="M6.592.887a3.713,3.713,0,0,1,4.817,0,2.856,2.856,0,0,0,1.625.673A3.713,3.713,0,0,1,16.44,4.966a2.856,2.856,0,0,0,.673,1.625,3.713,3.713,0,0,1,0,4.817,2.856,2.856,0,0,0-.673,1.625,3.713,3.713,0,0,1-3.406,3.406,2.856,2.856,0,0,0-1.625.673,3.713,3.713,0,0,1-4.817,0,2.856,2.856,0,0,0-1.625-.673A3.713,3.713,0,0,1,1.56,13.034a2.856,2.856,0,0,0-.673-1.625,3.713,3.713,0,0,1,0-4.817A2.856,2.856,0,0,0,1.56,4.966,3.713,3.713,0,0,1,4.966,1.56,2.856,2.856,0,0,0,6.592.887Zm4.261.652a2.856,2.856,0,0,0-3.7,0,3.713,3.713,0,0,1-2.113.875,2.856,2.856,0,0,0-2.62,2.62,3.713,3.713,0,0,1-.875,2.113,2.856,2.856,0,0,0,0,3.7,3.713,3.713,0,0,1,.875,2.113,2.856,2.856,0,0,0,2.62,2.62,3.714,3.714,0,0,1,2.113.875,2.856,2.856,0,0,0,3.7,0,3.713,3.713,0,0,1,2.113-.875,2.856,2.856,0,0,0,2.62-2.62,3.713,3.713,0,0,1,.875-2.113,2.856,2.856,0,0,0,0-3.7,3.714,3.714,0,0,1-.875-2.113,2.856,2.856,0,0,0-2.62-2.62A3.713,3.713,0,0,1,10.852,1.539ZM12.3,6.554a.429.429,0,0,1,0,.606L8.446,11.017a.429.429,0,0,1-.606,0L6.126,9.3A.429.429,0,0,1,6.732,8.7l1.411,1.411L11.7,6.554A.428.428,0,0,1,12.3,6.554Z" fill-rule="evenodd"/>
</svg>
