<svg xmlns="http://www.w3.org/2000/svg" width="18" height="17.168" viewBox="0 0 18 17.168">
  <path id="icon_edit" d="M12.928,1.727A2.483,2.483,0,0,1,16.44,5.239l-11.9,11.9-.038.038a4.179,4.179,0,0,1-.732.639,2.369,2.369,0,0,1-.685.284,4.172,4.172,0,0,1-.97.066H.474A.474.474,0,0,1,0,17.694V16.108q0-.027,0-.054a4.174,4.174,0,0,1,.065-.97A2.368,2.368,0,0,1,.349,14.4a4.173,4.173,0,0,1,.639-.732l.038-.038Zm2.842.67a1.536,1.536,0,0,0-2.172,0L1.7,14.3a3.71,3.71,0,0,0-.54.6,1.422,1.422,0,0,0-.17.411,3.712,3.712,0,0,0-.039.8V17.22H2.06a3.706,3.706,0,0,0,.8-.039,1.421,1.421,0,0,0,.411-.17,3.712,3.712,0,0,0,.6-.54l11.9-11.9A1.536,1.536,0,0,0,15.77,2.4Zm-7.244,15.3A.474.474,0,0,1,9,17.22h8.526a.474.474,0,0,1,0,.947H9A.474.474,0,0,1,8.526,17.694Z" transform="translate(0 -1)" fill-rule="evenodd"/>
</svg>
