<svg xmlns="http://www.w3.org/2000/svg" width="19.429" height="24" viewBox="0 0 19.429 24">
  <path id="location_on" d="M9.714,1.143A8.571,8.571,0,0,0,1.143,9.714,11.05,11.05,0,0,0,3.881,16.4a58.528,58.528,0,0,0,5.132,5.523l.7.7.7-.7A58.529,58.529,0,0,0,15.547,16.4a11.05,11.05,0,0,0,2.738-6.688A8.571,8.571,0,0,0,9.714,1.143ZM0,9.714a9.714,9.714,0,0,1,19.429,0A12.168,12.168,0,0,1,16.453,17.1a59.752,59.752,0,0,1-5.247,5.652q-.543.539-1.087,1.081a.571.571,0,0,1-.808,0q-.543-.543-1.087-1.081A59.768,59.768,0,0,1,2.976,17.1,12.168,12.168,0,0,1,0,9.714ZM9.714,6.857a2.857,2.857,0,1,0,2.857,2.857A2.857,2.857,0,0,0,9.714,6.857Zm-4,2.857a4,4,0,1,1,4,4A4,4,0,0,1,5.714,9.714Z" fill-rule="evenodd"/>
</svg>
