<svg xmlns="http://www.w3.org/2000/svg" width="25.952" height="36.385" viewBox="0 0 25.952 36.385">
  <g id="location_pin" transform="translate(-1.432 5.546)">
    <path id="pin" d="M1316.25,790.531a6.17,6.17,0,0,1-.825-.8c-2.177-3.062-4.372-6.114-6.49-9.215a36.376,36.376,0,0,1-4.334-8.191,15.909,15.909,0,0,1-1.037-5.662,12.857,12.857,0,0,1,9.266-11.986,13,13,0,0,1,16.274,9.074,13.714,13.714,0,0,1-.411,7.935,32.31,32.31,0,0,1-3.992,7.96c-1.933,2.882-3.967,5.7-5.957,8.542-.361.516-.7,1.049-1.091,1.543a8.268,8.268,0,0,1-.826.8Z" transform="translate(-1302.13 -759.692)" fill="#00b2ca"/>
    <path id="pin-2" data-name="pin" d="M1377.429,821.453a6.47,6.47,0,1,1-6.5,6.438A6.48,6.48,0,0,1,1377.429,821.453Z" transform="translate(-1362.989 -820.2)" fill="#fff"/>
  </g>
</svg>
