<svg xmlns="http://www.w3.org/2000/svg" xmlns:xlink="http://www.w3.org/1999/xlink" width="120" height="120" viewBox="0 0 120 120">
  <defs>
    <clipPath id="clip-path">
      <rect id="Rectangle_3" data-name="Rectangle 3" width="120" height="120"/>
    </clipPath>
  </defs>
  <g id="test_icon" clip-path="url(#clip-path)">
    <g id="image" transform="translate(0 6.246)">
      <g id="design" transform="translate(0 -0.344)">
        <circle id="Ellipse_20" data-name="Ellipse 20" cx="22.5" cy="22.5" r="22.5" transform="translate(28 57.098)" fill="#435ebe" opacity="0.1"/>
        <circle id="Ellipse_21" data-name="Ellipse 21" cx="4.5" cy="4.5" r="4.5" transform="translate(11 27.098)" fill="#435ebe" opacity="0.1"/>
        <circle id="Ellipse_26" data-name="Ellipse 26" cx="8" cy="8" r="8" transform="translate(0 57.098)" fill="#435ebe" opacity="0.1"/>
        <circle id="Ellipse_22" data-name="Ellipse 22" cx="8" cy="8" r="8" transform="translate(71 1.098)" fill="#435ebe" opacity="0.1"/>
        <ellipse id="Ellipse_24" data-name="Ellipse 24" cx="5.5" cy="5" rx="5.5" ry="5" transform="translate(109 78.098)" fill="#435ebe" opacity="0.1"/>
        <circle id="Ellipse_25" data-name="Ellipse 25" cx="2.5" cy="2.5" r="2.5" transform="translate(72 103.098)" fill="#435ebe" opacity="0.1"/>
        <circle id="Ellipse_23" data-name="Ellipse 23" cx="3" cy="3" r="3" transform="translate(114 0.098)" fill="#435ebe" opacity="0.1"/>
      </g>
      <g id="image_get_phone" transform="translate(23.04 19.194)">
        <g id="Group_141" data-name="Group 141">
          <path id="_05" data-name="05" d="M101.548,47.448a26.484,26.484,0,0,1-1.761,6.784C95.9,62.978,89.281,68.221,79.755,69.5a23.941,23.941,0,0,1-17.73-4.683,1.346,1.346,0,0,0-1.1-.28c-1.581.26-3.162.48-4.723.72l-.44.06a1.625,1.625,0,0,1-1.7-.68A1.666,1.666,0,0,1,54.1,62.8c.62-1.1,1.221-2.241,1.861-3.322a1.022,1.022,0,0,0-.04-1.221,24.811,24.811,0,1,1,45.367-17.29c.06.42.16.84.24,1.241C101.548,43.946,101.548,45.687,101.548,47.448ZM76.593,23.194a15.4,15.4,0,0,0-3.222.24,21.069,21.069,0,0,0-13.008,7.344A21.183,21.183,0,0,0,55.4,48.049a20.626,20.626,0,0,0,3.842,9.466,1.866,1.866,0,0,1,.12,2.281c-.24.4-.46.821-.7,1.241-.28.5-.08.62.4.56a19.075,19.075,0,0,0,2.141-.34,2.338,2.338,0,0,1,2.141.56,21.235,21.235,0,0,0,17.09,4.4,21.667,21.667,0,0,0-3.842-43.025Z" transform="translate(-25.12 -20)" fill="#435ebe"/>
          <path id="_04" data-name="04" d="M59.976,94.434a11.668,11.668,0,0,1-8.145-3.362C43.667,82.927,35.5,74.8,27.4,66.6a11.948,11.948,0,0,1,.02-16.71c1.5-1.541,3.022-3.042,4.543-4.563a4.3,4.3,0,0,1,6.284,0c2.341,2.321,4.683,4.643,6.984,6.984a7.356,7.356,0,0,1,0,10.446c-.46.46-.9.941-1.381,1.381-.3.28-.26.46,0,.72q4.833,4.8,9.626,9.646c.32.32.52.24.8-.04.58-.58,1.161-1.181,1.781-1.7a7.214,7.214,0,0,1,9.706.14c2.542,2.4,5,4.883,7.424,7.4a4.283,4.283,0,0,1-.1,6.084c-1.561,1.6-3.142,3.222-4.763,4.763a12,12,0,0,1-8.348,3.283Zm.821-3.2a7.736,7.736,0,0,0,4.8-1.921c1.861-1.561,3.482-3.362,5.183-5.083a1.117,1.117,0,0,0-.02-1.781c-2.321-2.361-4.643-4.763-7.044-7.044a4.112,4.112,0,0,0-6.024.14c-.86.84-1.681,1.7-2.542,2.542a1.6,1.6,0,0,1-2.6-.02c-4.082-4.082-8.165-8.145-12.227-12.247a1.611,1.611,0,0,1-.02-2.6c.82-.84,1.661-1.661,2.481-2.5A4.219,4.219,0,0,0,42.8,54.4c-2.181-2.221-4.4-4.423-6.6-6.624a1.365,1.365,0,0,0-2.261,0c-1.4,1.381-2.8,2.782-4.182,4.182A8.878,8.878,0,0,0,29.7,64.5Q41.735,76.653,53.893,88.71A9.039,9.039,0,0,0,60.8,91.232Z" transform="translate(-24 -20.958)" fill="#435ebe"/>
          <path id="_03" data-name="03" d="M65.2,41.5a4.241,4.241,0,0,1,4.283,4.183,4.315,4.315,0,0,1-4.222,4.282,4.253,4.253,0,0,1-4.243-4.222A4.12,4.12,0,0,1,65.2,41.5Zm1.081,4.222a1.06,1.06,0,0,0-1-1.081A1.134,1.134,0,0,0,64.16,45.7a1.076,1.076,0,0,0,1.1,1.061,1.056,1.056,0,0,0,1.02-1.036Z" transform="translate(-25.481 -20.86)" fill="#435ebe"/>
          <path id="_02" data-name="02" d="M90.9,41.5a4.186,4.186,0,0,1,4.2,4.242,4.243,4.243,0,1,1-8.485-.06A4.2,4.2,0,0,1,90.9,41.5Zm1,4.162A1.091,1.091,0,0,0,90.859,44.6a1.079,1.079,0,0,0-1.021,1.081.993.993,0,0,0,1.081,1.061.974.974,0,0,0,.981-1.076Z" transform="translate(-26.505 -20.86)" fill="#435ebe"/>
          <path id="_01" data-name="01" d="M73.837,45.707a4.144,4.144,0,0,1,4.222-4.2,4.228,4.228,0,0,1,4.241,4.22,4.315,4.315,0,0,1-4.262,4.243,4.241,4.241,0,0,1-4.2-4.263Zm5.243.02a1.094,1.094,0,0,0-1-1.1,1.107,1.107,0,0,0-1.08,1.1,1.038,1.038,0,0,0,1.061,1.041,1.017,1.017,0,0,0,1.019-1.041Z" transform="translate(-25.993 -20.86)" fill="#435ebe"/>
        </g>
      </g>
    </g>
  </g>
</svg>
