<svg xmlns="http://www.w3.org/2000/svg" width="61.34" height="61.133" viewBox="0 0 61.34 61.133">
    <path data-name="Path 407" d="M347.512 275.939a2.173 2.173 0 0 0-1.989 2.164v49.728a2.171 2.171 0 0 0 1.8 2.14l22.771 4.043a2.178 2.178 0 0 0 2.563-2.138V276.1a2.175 2.175 0 0 0-2.372-2.165zm19.174 31.018c-.937 0-1.7-1.332-1.7-2.972s.76-2.971 1.7-2.971 1.7 1.328 1.7 2.971-.761 2.972-1.7 2.972z" transform="translate(-345.023 -273.422)" style="stroke:transparent;stroke-miterlimit:10;fill:#616e7d"/>
    <path data-name="Path 408" d="m649.086 437.312-17.8-13.215v6.856H617.46v12.637h13.828v6.854z" transform="translate(-588.587 -407.909)" style="fill:rgba(8,124,124,.6);stroke:transparent;stroke-miterlimit:10"/>
    <path data-name="Path 409" d="M530.8 535.6c0 1.645.76 2.982 1.7 2.982s1.7-1.337 1.7-2.982-.761-2.981-1.7-2.981-1.7 1.336-1.7 2.981z" transform="translate(-510.897 -505.04)" style="fill:#fff;stroke:transparent;stroke-miterlimit:10"/>
    <path data-name="Path 410" d="M629.739 311.085v-17.057a1.7 1.7 0 0 0-1.7-1.7H617.46v3.4h8.883v15.36z" transform="translate(-588.506 -289.893)" style="stroke:transparent;stroke-miterlimit:10;fill:#616e7d"/>
    <path data-name="Path 411" d="M617.46 645.019v3.4h10.583a1.7 1.7 0 0 0 1.7-1.7v-19.582h-3.4v17.882z" transform="translate(-588.506 -589.723)" style="stroke:transparent;stroke-miterlimit:10;fill:#616e7d"/>
</svg>
