<svg xmlns="http://www.w3.org/2000/svg" xmlns:xlink="http://www.w3.org/1999/xlink" width="24" height="24" viewBox="0 0 24 24">
  <defs>
    <clipPath id="clip-path">
      <rect id="Rectangle_4" data-name="Rectangle 4" width="24" height="24"/>
    </clipPath>
  </defs>
  <g id="my_property_active" clip-path="url(#clip-path)">
    <path id="my_property_active-2" data-name="my_property_active" d="M5.347,1H9.51c.619,0,1.119,0,1.523.033a2.93,2.93,0,0,1,1.121.278A2.857,2.857,0,0,1,13.4,2.56a2.929,2.929,0,0,1,.278,1.121c.033.4.033.9.033,1.523v4.939H18.65c.619,0,1.119,0,1.523.033a2.928,2.928,0,0,1,1.121.278A2.857,2.857,0,0,1,22.546,11.7a2.928,2.928,0,0,1,.278,1.121c.033.4.033.9.033,1.523v7.224h.572a.572.572,0,0,1,0,1.143H.571a.571.571,0,1,1,0-1.143h.571V5.2c0-.619,0-1.119.033-1.523A2.929,2.929,0,0,1,1.454,2.56,2.857,2.857,0,0,1,2.7,1.311a2.929,2.929,0,0,1,1.121-.278C4.228,1,4.728,1,5.347,1Zm8.367,10.286V21.571h8v-7.2c0-.649,0-1.1-.029-1.455a1.822,1.822,0,0,0-.158-.7,1.714,1.714,0,0,0-.749-.749,1.822,1.822,0,0,0-.695-.158c-.352-.029-.805-.029-1.455-.029ZM5.143,6.143a.571.571,0,0,1,.571-.571H9.143a.572.572,0,0,1,0,1.143H5.714a.571.571,0,0,1-.571-.572Zm0,4.571a.571.571,0,0,1,.571-.571H9.143a.572.572,0,0,1,0,1.143H5.714a.571.571,0,0,1-.571-.572Zm0,4.571a.571.571,0,0,1,.571-.571H9.143a.572.572,0,0,1,0,1.143H5.714a.571.571,0,0,1-.571-.571Z" fill="#435ebe" fill-rule="evenodd"/>
  </g>
</svg>
