<svg xmlns="http://www.w3.org/2000/svg" width="24" height="21.714" viewBox="0 0 24 21.714">
  <path id="myproperty" d="M5.347,1H9.51c.619,0,1.119,0,1.523.033a2.93,2.93,0,0,1,1.121.278A2.857,2.857,0,0,1,13.4,2.56a2.929,2.929,0,0,1,.278,1.121c.033.4.033.9.033,1.523v4.939h4.939c.619,0,1.119,0,1.523.033a2.928,2.928,0,0,1,1.121.278A2.857,2.857,0,0,1,22.546,11.7a2.928,2.928,0,0,1,.278,1.121c.033.4.033.9.033,1.523v7.224h.572a.571.571,0,0,1,0,1.143H.571a.571.571,0,0,1,0-1.143h.571V5.2c0-.619,0-1.119.033-1.523A2.929,2.929,0,0,1,1.454,2.56,2.857,2.857,0,0,1,2.7,1.311a2.929,2.929,0,0,1,1.121-.278C4.228,1,4.728,1,5.347,1ZM2.286,21.571H12.571V5.229c0-.649,0-1.1-.029-1.455a1.824,1.824,0,0,0-.158-.695,1.714,1.714,0,0,0-.749-.749,1.824,1.824,0,0,0-.695-.158c-.352-.029-.805-.029-1.455-.029H5.371c-.649,0-1.1,0-1.455.029a1.823,1.823,0,0,0-.695.158,1.714,1.714,0,0,0-.749.749,1.823,1.823,0,0,0-.158.695c-.029.352-.029.805-.029,1.455ZM13.714,11.286V21.571h8v-7.2c0-.649,0-1.1-.029-1.455a1.822,1.822,0,0,0-.158-.7,1.714,1.714,0,0,0-.749-.749,1.822,1.822,0,0,0-.695-.158c-.352-.029-.805-.029-1.455-.029ZM5.143,6.143a.571.571,0,0,1,.571-.571H9.143a.571.571,0,0,1,0,1.143H5.714A.571.571,0,0,1,5.143,6.143Zm0,4.571a.571.571,0,0,1,.571-.571H9.143a.571.571,0,1,1,0,1.143H5.714A.571.571,0,0,1,5.143,10.714Zm0,4.571a.571.571,0,0,1,.571-.571H9.143a.571.571,0,1,1,0,1.143H5.714A.571.571,0,0,1,5.143,15.286Z" transform="translate(0 -1)" fill-rule="evenodd"/>
</svg>
