<svg xmlns="http://www.w3.org/2000/svg" width="24.013" height="20" viewBox="0 0 24.013 20">
  <g id="office" transform="translate(-0.9 -2)">
    <path id="Path_7" data-name="Path 7" d="M24.1,20.8H24V21l-.2-.2h-.4V8.7a.692.692,0,0,0-.6-.6h-.3c-.1,0-.2.1-.3.1l-.9.4c-1,.4-2,.8-2.9,1.2-.1,0-.1,0-.2.1V3c0-.4,0-1-.6-1a2.544,2.544,0,0,0-.7.2L13.4,3.7c-1.6.7-3.3,1.4-4.9,2-.5.3-.8.6-.7,1.1V8c0,.2-.1.3-.3.4-.7.3-1.5.6-2.2.9l-2.1.9a1,1,0,0,0-.6,1v9.4c0,.2,0,.2-.1.3h-1a.576.576,0,0,0-.6.6.634.634,0,0,0,.6.5H24.1c.3,0,.8,0,.8-.6C25,20.9,24.5,20.8,24.1,20.8ZM3.9,11.2c.1-.2.5-.3.8-.4a.52.52,0,0,0,.4-.2c.8-.3,1.6-.7,2.5-1a.31.31,0,0,0,.2-.1v9.2c-.1,0-.2-.1-.3-.1H3.8V12C3.8,11.7,3.7,11.4,3.9,11.2Zm3.8,9.6a.349.349,0,0,1-.2.1H4.2c-.2,0-.3,0-.3-.3V20H7.1v-.2l.1.2h.3a.367.367,0,0,0,.3-.1v.7C7.8,20.7,7.8,20.8,7.7,20.8Zm6,.4H12.3a.265.265,0,0,1-.3-.3V19.5a.265.265,0,0,1,.3-.3h1.4a.265.265,0,0,1,.3.3v1.4A.319.319,0,0,1,13.7,21.2Zm3.3-.8v.4H15V18.7a.576.576,0,0,0-.6-.6H11.7a.576.576,0,0,0-.6.6v2H9.2c-.1,0-.2,0-.2-.2V7c0-.1,0-.2.2-.3C11,6,12.8,5.2,14.6,4.5c0,0,2.3-1,2.4-1Zm5.2.1v.3H18.6c-.2,0-.2,0-.2-.1a.139.139,0,0,1,0-.2v-.6h3.7a.367.367,0,0,0,.3-.1v.7Zm0-1.8c-.1,0-.2-.1-.3-.1H18.3V12a1.3,1.3,0,0,1,.8-1.2c1.1-.4,2.1-.9,3.2-1.3C22.2,9.6,22.2,18.7,22.2,18.7Z" fill="#435ebe"/>
    <path id="Path_8" data-name="Path 8" d="M11.5,8a.5.5,0,0,1,.5.5v5a.5.5,0,0,1-1,0v-5A.5.5,0,0,1,11.5,8Z" fill="#435ebe" fill-rule="evenodd"/>
    <path id="Path_9" data-name="Path 9" d="M14.5,10a.5.5,0,0,1,.5.5v5a.5.5,0,0,1-1,0v-5A.5.5,0,0,1,14.5,10Z" fill="#435ebe" fill-rule="evenodd"/>
  </g>
</svg>
