<svg xmlns="http://www.w3.org/2000/svg" width="24" height="24" viewBox="0 0 24 24">
    <defs>
        <clipPath id="qak30a3vua">
            <path data-name="Rectangle 1037" transform="translate(.076 -.243)" style="fill:#fff;stroke:#707070" d="M0 0h24v24H0z"/>
        </clipPath>
    </defs>
    <g data-name="Mask Group 46" transform="translate(-.076 .243)" style="clip-path:url(#qak30a3vua)">
        <g data-name="paypal">
            <path data-name="Path 11355" d="M17.329 1.878C16.217.611 14.207.068 11.636.068H4.174a1.069 1.069 0 0 0-1.055.9L.011 20.675a.641.641 0 0 0 .633.74h4.607l1.157-7.339-.036.23a1.065 1.065 0 0 1 1.051-.9h2.19c4.3 0 7.668-1.747 8.652-6.8q.044-.224.076-.437a4.77 4.77 0 0 0-1.012-4.29" transform="translate(1.913 -.306)" style="fill:#27346a"/>
            <path data-name="Path 11356" d="M8.171 5.5a.937.937 0 0 1 .4-.091h5.85a12.209 12.209 0 0 1 1.929.14q.248.04.493.094.347.077.685.187a5.281 5.281 0 0 1 .809.342 4.77 4.77 0 0 0-1.012-4.29C16.216.611 14.207.068 11.636.068H4.173a1.068 1.068 0 0 0-1.055.9L.011 20.675a.64.64 0 0 0 .632.741h4.608l2.4-15.222a.935.935 0 0 1 .519-.7z" transform="translate(1.913 -.306)" style="fill:#fcfcfc"/>
            <path data-name="Path 11357" d="M18.467 6.856c-.984 5.053-4.351 6.8-8.652 6.8h-2.19a1.064 1.064 0 0 0-1.051.9l-1.439 9.127a.561.561 0 0 0 .553.648h3.884a.934.934 0 0 0 .923-.788l.038-.2.732-4.639.047-.256a.934.934 0 0 1 .923-.788h.581c3.762 0 6.708-1.528 7.569-5.949.359-1.847.173-3.389-.777-4.473a3.71 3.71 0 0 0-1.063-.82 13.43 13.43 0 0 1-.076.437z" transform="translate(1.711 -.557)" style="fill:#2790c3"/>
            <path data-name="Path 11358" d="M17.671 5.987q-.232-.069-.468-.122t-.5-.1a12.03 12.03 0 0 0-1.947-.145h-5.9a.917.917 0 0 0-.407.094.956.956 0 0 0-.524.717l-1.254 8.1-.036.236a1.08 1.08 0 0 1 1.06-.926H9.9c4.339 0 7.736-1.8 8.729-6.988.03-.154.054-.3.077-.449a5.306 5.306 0 0 0-.816-.351q-.111-.037-.223-.071" transform="translate(1.651 -.525)" style="opacity:.82;fill:#2790c3"/>
        </g>
    </g>
</svg>
