<svg xmlns="http://www.w3.org/2000/svg" width="24" height="24" viewBox="0 0 24 24">
    <path data-name="Rectangle 1038" style="fill:none" d="M0 0h23.589v23.637H0z"/>
    <path data-name="Path 11361" d="M21.484 0H1.258A1.285 1.285 0 0 0 0 1.286V3.58a1.285 1.285 0 0 0 1.258 1.286h20.226a1.306 1.306 0 0 0 1.283-1.286V1.311A1.3 1.3 0 0 0 21.484 0zm0 12.733H1.258a1.179 1.179 0 0 0-.88.378 1.239 1.239 0 0 0-.378.908v2.294A1.285 1.285 0 0 0 1.258 17.6h20.226a1.29 1.29 0 0 0 1.283-1.286v-2.295a1.29 1.29 0 0 0-1.283-1.286zm-8.83 6.354H1.258a1.179 1.179 0 0 0-.88.378 1.346 1.346 0 0 0-.378.907v2.294a1.285 1.285 0 0 0 1.258 1.286h11.371a1.263 1.263 0 0 0 1.258-1.261V20.4a1.211 1.211 0 0 0-1.233-1.311zM22.767 6.354H1.258a1.179 1.179 0 0 0-.88.378A1.346 1.346 0 0 0 0 7.64v2.294a1.285 1.285 0 0 0 1.258 1.286h21.483A1.269 1.269 0 0 0 24 9.934V7.64a1.263 1.263 0 0 0-1.233-1.286z" transform="translate(0 .047)" style="fill:#00c3f7"/>
</svg>
