<svg xmlns="http://www.w3.org/2000/svg" width="24" height="24.103" viewBox="0 0 24 24.103">
  <path id="profile_call" d="M13.809.507a.569.569,0,0,1,.629-.5A10.821,10.821,0,0,1,24,9.55a.57.57,0,1,1-1.132.127,9.682,9.682,0,0,0-8.552-8.542A.569.569,0,0,1,13.809.507ZM5.355,3.094a1.709,1.709,0,0,0-1.542,0,5.38,5.38,0,0,0-1.087.967l-.18.18A5.818,5.818,0,0,0,1.5,5.431a3.289,3.289,0,0,0-.365,1.4,4.34,4.34,0,0,0,.253,1.281A21.117,21.117,0,0,0,6.8,17.3a21.116,21.116,0,0,0,9.189,5.406,4.338,4.338,0,0,0,1.281.253,3.288,3.288,0,0,0,1.4-.365,5.817,5.817,0,0,0,1.191-1.041l.18-.18a5.382,5.382,0,0,0,.967-1.087,1.709,1.709,0,0,0,0-1.542,5.382,5.382,0,0,0-.967-1.087l-.222-.222a5.4,5.4,0,0,0-.705-.653,1.709,1.709,0,0,0-1.863,0,5.4,5.4,0,0,0-.705.653l-.022.022a2.6,2.6,0,0,1-.321.288A1.76,1.76,0,0,1,14.731,18a2.315,2.315,0,0,1-.369-.152l-.021-.01a17.2,17.2,0,0,1-4.724-3.353A17.2,17.2,0,0,1,6.265,9.761l-.01-.021A2.316,2.316,0,0,1,6.1,9.371,1.76,1.76,0,0,1,6.354,7.9a2.594,2.594,0,0,1,.289-.321l.022-.022a5.4,5.4,0,0,0,.653-.705,1.709,1.709,0,0,0,0-1.863,5.4,5.4,0,0,0-.653-.705l-.222-.222A5.38,5.38,0,0,0,5.355,3.094ZM3.3,2.077a2.848,2.848,0,0,1,2.571,0,5.684,5.684,0,0,1,1.3,1.1l.075.075.222.222.05.05a5.7,5.7,0,0,1,.753.84,2.848,2.848,0,0,1,0,3.1,5.7,5.7,0,0,1-.753.84l-.05.05a1.926,1.926,0,0,0-.189.2.625.625,0,0,0-.084.491,1.466,1.466,0,0,0,.1.216,16.063,16.063,0,0,0,3.132,4.411,16.064,16.064,0,0,0,4.411,3.132,1.478,1.478,0,0,0,.216.1.625.625,0,0,0,.491-.084,1.927,1.927,0,0,0,.2-.19l.05-.05a5.7,5.7,0,0,1,.84-.753,2.848,2.848,0,0,1,3.1,0,5.7,5.7,0,0,1,.84.753l.05.05.222.222.075.075a5.685,5.685,0,0,1,1.1,1.3,2.847,2.847,0,0,1,0,2.571,5.686,5.686,0,0,1-1.1,1.3l-.075.075-.228.228a6.522,6.522,0,0,1-1.391,1.181,4.408,4.408,0,0,1-1.964.511,5.272,5.272,0,0,1-1.55-.286l-.039-.011a22.255,22.255,0,0,1-9.683-5.7A22.255,22.255,0,0,1,.3,8.427L.286,8.388A5.267,5.267,0,0,1,0,6.838,4.408,4.408,0,0,1,.511,4.874,6.521,6.521,0,0,1,1.692,3.483l.048-.048.18-.18.075-.075A5.684,5.684,0,0,1,3.3,2.077ZM13.816,5.017a.57.57,0,0,1,.668-.45,6.265,6.265,0,0,1,4.949,4.949.57.57,0,0,1-1.118.218,5.126,5.126,0,0,0-4.049-4.049A.57.57,0,0,1,13.816,5.017Z" transform="translate(0 0)" fill="#b3b3b3" fill-rule="evenodd"/>
</svg>
