<svg xmlns="http://www.w3.org/2000/svg" width="24" height="22.857" viewBox="0 0 24 22.857">
  <path id="profile_camera" d="M20,0a.571.571,0,0,1,.571.571V3.429h2.857a.571.571,0,0,1,0,1.143H20.571V7.429a.571.571,0,1,1-1.143,0V4.571H16.571a.571.571,0,0,1,0-1.143h2.857V.571A.571.571,0,0,1,20,0ZM7.86,1.143h4.712a.571.571,0,1,1,0,1.143H7.886c-1.29,0-2.222,0-2.956.06a4.192,4.192,0,0,0-1.6.376A4,4,0,0,0,1.579,4.47a4.192,4.192,0,0,0-.376,1.6c-.06.734-.06,1.666-.06,2.956v5.943c0,1.29,0,2.222.06,2.956a4.191,4.191,0,0,0,.376,1.6,4,4,0,0,0,1.748,1.748,4.191,4.191,0,0,0,1.6.376c.734.06,1.666.06,2.956.06h8.229c1.289,0,2.222,0,2.956-.06a4.191,4.191,0,0,0,1.6-.376,4,4,0,0,0,1.748-1.748,4.192,4.192,0,0,0,.376-1.6c.06-.734.06-1.666.06-2.956V11.429a.571.571,0,1,1,1.143,0V15c0,1.258,0,2.238-.064,3.023a5.3,5.3,0,0,1-.5,2.029A5.144,5.144,0,0,1,21.192,22.3a5.3,5.3,0,0,1-2.029.5c-.786.064-1.765.064-3.023.064H7.86c-1.258,0-2.238,0-3.023-.064a5.3,5.3,0,0,1-2.029-.5A5.143,5.143,0,0,1,.561,20.049a5.3,5.3,0,0,1-.5-2.029C0,17.235,0,16.256,0,15V9C0,7.744,0,6.765.064,5.98a5.3,5.3,0,0,1,.5-2.029A5.143,5.143,0,0,1,2.808,1.7a5.3,5.3,0,0,1,2.029-.5C5.622,1.143,6.6,1.143,7.86,1.143ZM12,8a4,4,0,1,0,4,4A4,4,0,0,0,12,8ZM6.857,12A5.143,5.143,0,1,1,12,17.143,5.143,5.143,0,0,1,6.857,12Z" fill="#fff" fill-rule="evenodd"/>
</svg>
