<svg xmlns="http://www.w3.org/2000/svg" width="19.428" height="24" viewBox="0 0 19.428 24">
  <path id="profile_address" d="M10.166,1.143A8.571,8.571,0,0,0,1.6,9.714c0,3.4,1.822,5.252,3.939,7.027.225.188.454.377.686.567a13.564,13.564,0,0,1,3.947,4.339,13.565,13.565,0,0,1,3.947-4.339c.232-.19.462-.379.686-.567,2.116-1.775,3.939-3.628,3.939-7.027A8.571,8.571,0,0,0,10.166,1.143ZM.452,9.714a9.714,9.714,0,1,1,19.429,0c0,3.936-2.177,6.083-4.347,7.9q-.348.292-.689.572c-1.941,1.6-3.649,3.012-4.117,5.351a.571.571,0,0,1-1.121,0c-.468-2.34-2.176-3.749-4.117-5.351q-.341-.281-.689-.572C2.63,15.8.452,13.65.452,9.714Zm9.714-2.857a2.857,2.857,0,1,0,2.857,2.857A2.857,2.857,0,0,0,10.166,6.857Zm-4,2.857a4,4,0,1,1,4,4A4,4,0,0,1,6.166,9.714Z" transform="translate(-0.452)" fill="#435ebe" fill-rule="evenodd"/>
</svg>
