<svg xmlns="http://www.w3.org/2000/svg" width="24" height="22.778" viewBox="0 0 24 22.778">
  <path id="profile_active" d="M5.684,7.316A6.316,6.316,0,1,1,12,13.632,6.316,6.316,0,0,1,5.684,7.316ZM12,23.684c-4.222,0-8.032.066-10.875.081a1.377,1.377,0,0,1-.927-.2.632.632,0,0,1-.026-.893A16.218,16.218,0,0,1,12,17.421a16.218,16.218,0,0,1,11.828,5.251.632.632,0,0,1-.026.893c-.254.239-.916.133-.9.119C20.063,23.669,16.222,23.684,12,23.684Z" transform="translate(0 -1)" fill="#435ebe" fill-rule="evenodd"/>
</svg>
