<svg xmlns="http://www.w3.org/2000/svg" xmlns:xlink="http://www.w3.org/1999/xlink" width="24" height="24" viewBox="0 0 24 24">
  <defs>
    <clipPath id="clip-rent_black">
      <rect width="24" height="24"/>
    </clipPath>
  </defs>
  <g id="rent_black" clip-path="url(#clip-rent_black)">
    <path id="rent_black-2" data-name="rent_black" d="M12,1.143a10.857,10.857,0,0,0-.284,21.711A.571.571,0,0,1,11.686,24,12,12,0,1,1,24,12q0,.332-.018.659a.571.571,0,0,1-1.141-.062q.016-.3.016-.6A10.857,10.857,0,0,0,12,1.143Zm0,3.429a.571.571,0,0,1,.571.571v6.5l3.957,1.978a.571.571,0,0,1-.511,1.022l-4.272-2.136A.572.572,0,0,1,11.429,12V5.143A.571.571,0,0,1,12,4.571ZM22.69,16.739a.572.572,0,0,1,0,.808L17.547,22.69a.572.572,0,0,1-.808,0L14.453,20.4a.571.571,0,1,1,.808-.808l1.882,1.882,4.739-4.739A.571.571,0,0,1,22.69,16.739Z" transform="translate(0 0)" fill="#212121" fill-rule="evenodd"/>
  </g>
</svg>
