<svg xmlns="http://www.w3.org/2000/svg" width="18.948" height="24" viewBox="0 0 18.948 24">
  <path id="saved_properties" d="M6.667,0h5.614c1.037,0,1.855,0,2.512.054a4.547,4.547,0,0,1,1.74.428,4.421,4.421,0,0,1,1.932,1.932,4.548,4.548,0,0,1,.428,1.74c.054.658.054,1.475.054,2.512v16.7a.632.632,0,0,1-.945.548L9.474,19.043.945,23.917A.632.632,0,0,1,0,23.368V6.667C0,5.629,0,4.812.054,4.154a4.547,4.547,0,0,1,.428-1.74A4.421,4.421,0,0,1,2.414.482,4.547,4.547,0,0,1,4.154.054C4.812,0,5.629,0,6.667,0ZM4.257,1.313a3.323,3.323,0,0,0-1.27.295,3.158,3.158,0,0,0-1.38,1.38,3.323,3.323,0,0,0-.295,1.27c-.049.6-.05,1.366-.05,2.437V22.28l7.9-4.513a.632.632,0,0,1,.627,0l7.9,4.513V6.695c0-1.072,0-1.837-.049-2.437a3.324,3.324,0,0,0-.295-1.27,3.157,3.157,0,0,0-1.38-1.38,3.324,3.324,0,0,0-1.27-.295c-.6-.049-1.366-.05-2.437-.05H6.695C5.623,1.263,4.857,1.264,4.257,1.313ZM14.341,6.5a.631.631,0,0,1,0,.893L8.657,13.078a.632.632,0,0,1-.893,0L5.238,10.552a.632.632,0,1,1,.893-.893l2.08,2.08L13.448,6.5A.632.632,0,0,1,14.341,6.5Z" fill="#435ebe" fill-rule="evenodd"/>
</svg>
