<svg xmlns="http://www.w3.org/2000/svg" width="14.21" height="18" viewBox="0 0 14.21 18">
  <path id="save_property" d="M5,0h4.21c.778,0,1.391,0,1.884.04A3.41,3.41,0,0,1,12.4.361,3.316,3.316,0,0,1,13.849,1.81a3.41,3.41,0,0,1,.321,1.305c.04.493.04,1.106.04,1.884V17.526a.474.474,0,0,1-.709.411l-6.4-3.655-6.4,3.655A.474.474,0,0,1,0,17.526V5c0-.778,0-1.391.04-1.884A3.41,3.41,0,0,1,.361,1.81,3.316,3.316,0,0,1,1.81.361,3.41,3.41,0,0,1,3.116.04C3.609,0,4.222,0,5,0ZM3.193.985a2.492,2.492,0,0,0-.952.221A2.368,2.368,0,0,0,1.206,2.241a2.492,2.492,0,0,0-.221.952C.948,3.643.947,4.217.947,5.021V16.71L6.87,13.326a.474.474,0,0,1,.47,0l5.923,3.385V5.021c0-.8,0-1.378-.037-1.828a2.492,2.492,0,0,0-.221-.952A2.369,2.369,0,0,0,11.97,1.206a2.493,2.493,0,0,0-.952-.221C10.567.948,9.993.947,9.189.947H5.021C4.217.947,3.643.948,3.193.985Zm3.912,2.8a.474.474,0,0,1,.474.474V6.632H9.947a.474.474,0,1,1,0,.947H7.579V9.947a.474.474,0,1,1-.947,0V7.579H4.263a.474.474,0,1,1,0-.947H6.632V4.263A.474.474,0,0,1,7.105,3.789Z" fill="#fff" fill-rule="evenodd"/>
</svg>
