<svg xmlns="http://www.w3.org/2000/svg" xmlns:xlink="http://www.w3.org/1999/xlink" width="24" height="24" viewBox="0 0 24 24">
  <defs>
    <clipPath id="clip-sell_black">
      <rect width="24" height="24"/>
    </clipPath>
  </defs>
  <g id="sell_black" clip-path="url(#clip-sell_black)">
    <path id="Path_6" data-name="Path 6" d="M3.709,23.455H2.836a2.578,2.578,0,0,1-1.418-.218.984.984,0,0,1-.655-.654,2.578,2.578,0,0,1-.218-1.418V14.836a2.578,2.578,0,0,1,.218-1.418.984.984,0,0,1,.655-.655,2.578,2.578,0,0,1,1.418-.218h.873a2.578,2.578,0,0,1,1.418.218.984.984,0,0,1,.655.655A2.738,2.738,0,0,1,6,14.509l2.4-.982a10.346,10.346,0,0,1,3.164-.873,6.384,6.384,0,0,1,1.418.218l2.618.655a2.229,2.229,0,0,1,1.745,2.182v.327a1.384,1.384,0,0,1-.109.655l2.618-1.855a2.311,2.311,0,0,1,2.945.218,2.154,2.154,0,0,1,.655,1.527,1.981,1.981,0,0,1-.655,1.527L20.4,20.4a4.988,4.988,0,0,1-2.618,1.309l-3.273.655a7.3,7.3,0,0,1-2.182,0L9.273,21.6a3.02,3.02,0,0,0-.982-.109H6a1.981,1.981,0,0,1-.218,1.2,1.118,1.118,0,0,1-.655.545A2.578,2.578,0,0,1,3.709,23.455Zm-.873-9.818c-.436,0-.764,0-.873.109a.235.235,0,0,0-.218.218c-.109.109-.109.436-.109.873v6.327c0,.436,0,.764.109.873a.235.235,0,0,0,.218.218c.109.109.436.109.873.109h.873c.436,0,.764,0,.873-.109a.235.235,0,0,0,.218-.218c.109-.109.109-.436.109-.873V14.836c0-.436,0-.764-.109-.873a.235.235,0,0,0-.218-.218c-.109-.109-.436-.109-.873-.109ZM6,20.291H8.291a4.09,4.09,0,0,1,1.2.109l3.055.764a4.7,4.7,0,0,0,1.746,0l3.273-.655a3.84,3.84,0,0,0,2.073-1.091l2.4-2.291a1.122,1.122,0,0,0-1.527-1.636l-2.727,1.964A2.939,2.939,0,0,1,16.145,18H13.527a.545.545,0,0,1,0-1.091h1.636a1.2,1.2,0,0,0,1.2-1.091v-.327a1.062,1.062,0,0,0-.873-1.091l-2.618-.655a4.09,4.09,0,0,0-1.2-.109,7.293,7.293,0,0,0-2.727.873l-2.836,1.2v4.582Zm10.909-9.927a4.405,4.405,0,0,1-3.382-1.636,4.512,4.512,0,0,1-2.073.545,4.364,4.364,0,1,1,0-8.727,4.086,4.086,0,0,1,3.382,1.636,4.512,4.512,0,0,1,2.073-.545,4.364,4.364,0,1,1,0,8.727Zm0-7.636A3.214,3.214,0,0,0,13.636,6a3.273,3.273,0,0,0,6.546,0A3.214,3.214,0,0,0,16.909,2.727ZM11.455,1.636A3.214,3.214,0,0,0,8.182,4.909a3.214,3.214,0,0,0,3.273,3.273,3.85,3.85,0,0,0,1.527-.327A5.139,5.139,0,0,1,12.545,6a4.118,4.118,0,0,1,1.418-3.164A3.262,3.262,0,0,0,11.455,1.636Z" fill="#212121"/>
  </g>
</svg>
