<svg xmlns="http://www.w3.org/2000/svg" width="24" height="22.245" viewBox="0 0 24 22.245">
  <path id="share_app" d="M10.264.46a1.248,1.248,0,0,1,1-.459A1.345,1.345,0,0,1,12,.289c.182.13.4.314.641.523L23.249,9.905c.138.118.27.231.372.336a1.271,1.271,0,0,1,.305.46,1.247,1.247,0,0,1,0,.844,1.269,1.269,0,0,1-.305.46c-.1.1-.234.217-.372.336L12.64,21.434c-.244.209-.459.393-.641.523a1.345,1.345,0,0,1-.737.289,1.248,1.248,0,0,1-1-.459,1.344,1.344,0,0,1-.26-.748c-.02-.222-.02-.505-.02-.827V15.639A13.6,13.6,0,0,0,1.1,20.46a.624.624,0,0,1-1.1-.4V19.3A12.687,12.687,0,0,1,9.984,6.909V2.034c0-.321,0-.6.02-.827A1.344,1.344,0,0,1,10.264.46Zm.986.828c0,.01,0,.02,0,.032-.014.159-.015.385-.015.742v5.36a.624.624,0,0,1-.516.615,11.439,11.439,0,0,0-9.434,10.4,14.851,14.851,0,0,1,9.285-4.109.624.624,0,0,1,.666.623v5.229c0,.358,0,.583.015.742,0,.011,0,.022,0,.032l.026-.018c.13-.093.3-.239.573-.472L22.42,11.407c.161-.138.251-.215.31-.276l.007-.008-.007-.008c-.06-.061-.15-.139-.31-.276L11.849,1.778c-.272-.233-.443-.379-.573-.472Z" transform="translate(0 0)" fill="#435ebe" fill-rule="evenodd"/>
</svg>
