<svg id="term" xmlns="http://www.w3.org/2000/svg" width="24" height="24.046" viewBox="0 0 24 24.046">
  <path id="Path_2379" data-name="Path 2379" d="M-1574.975,641.762a1.515,1.515,0,0,1-.4.051q-1.716,0-3.431,0-1.223,0-2.448,0a1.2,1.2,0,0,1-1.28-1.252,1.184,1.184,0,0,1,1.177-1.157q.614,0,1.229,0l1.806,0,1.806,0q.615,0,1.229,0a1.187,1.187,0,0,1,1.174,1.022A1.193,1.193,0,0,1-1574.975,641.762Z" transform="translate(1587.729 -628.19)" fill="#435ebe"/>
  <path id="Path_2380" data-name="Path 2380" d="M-1570.047,551.874a1.187,1.187,0,0,1-1.178,1.017q-1.123,0-2.245,0h-5.749q-1.149,0-2.3,0a1.13,1.13,0,0,1-1.08-.692,1.15,1.15,0,0,1,.16-1.276,1.218,1.218,0,0,1,1.01-.443h5.207q2.4,0,4.792,0a2.029,2.029,0,0,1,.525.053A1.187,1.187,0,0,1-1570.047,551.874Z" transform="translate(1587.91 -544.312)" fill="#435ebe"/>
  <path id="Path_2381" data-name="Path 2381" d="M-1360.821,717.17h0c-.068,0-.159.007-.251.014a.487.487,0,0,0-.525.535c-.007.134-.008.269,0,.4.015.512.15.65.658.675.049,0,.1,0,.148,0h0c.666,0,.81-.143.812-.808C-1359.984,717.308-1360.12,717.17-1360.821,717.17Zm.836,3a.8.8,0,0,0-.805-.83.8.8,0,0,0-.806.831q-.007,1.04,0,2.08a.809.809,0,0,0,.806.834h0a.809.809,0,0,0,.8-.836c0-.347,0-.693,0-1.04S-1359.982,720.517-1359.985,720.17Zm-.836-3h0c-.068,0-.159.007-.251.014a.487.487,0,0,0-.525.535c-.007.134-.008.269,0,.4.015.512.15.65.658.675.049,0,.1,0,.148,0h0c.666,0,.81-.143.812-.808C-1359.984,717.308-1360.12,717.17-1360.821,717.17Zm.836,3a.8.8,0,0,0-.805-.83.8.8,0,0,0-.806.831q-.007,1.04,0,2.08a.809.809,0,0,0,.806.834h0a.809.809,0,0,0,.8-.836c0-.347,0-.693,0-1.04S-1359.982,720.517-1359.985,720.17Zm-.836-3h0c-.068,0-.159.007-.251.014a.487.487,0,0,0-.525.535c-.007.134-.008.269,0,.4.015.512.15.65.658.675.049,0,.1,0,.148,0h0c.666,0,.81-.143.812-.808C-1359.984,717.308-1360.12,717.17-1360.821,717.17Zm.836,3a.8.8,0,0,0-.805-.83.8.8,0,0,0-.806.831q-.007,1.04,0,2.08a.809.809,0,0,0,.806.834h0a.809.809,0,0,0,.8-.836c0-.347,0-.693,0-1.04S-1359.982,720.517-1359.985,720.17Zm0,0a.8.8,0,0,0-.805-.83.8.8,0,0,0-.806.831q-.007,1.04,0,2.08a.809.809,0,0,0,.806.834h0a.809.809,0,0,0,.8-.836c0-.347,0-.693,0-1.04S-1359.982,720.517-1359.985,720.17Zm-.96-1.374c.049,0,.1,0,.148,0h0c.666,0,.81-.143.812-.808,0-.685-.135-.823-.836-.823h0c-.068,0-.159.007-.251.014a.487.487,0,0,0-.525.535c-.007.134-.008.269,0,.4C-1361.589,718.634-1361.453,718.772-1360.946,718.8Zm.96,1.374a.8.8,0,0,0-.805-.83.8.8,0,0,0-.806.831q-.007,1.04,0,2.08a.809.809,0,0,0,.806.834h0a.809.809,0,0,0,.8-.836c0-.347,0-.693,0-1.04S-1359.982,720.517-1359.985,720.17Zm-.96-1.374c.049,0,.1,0,.148,0h0c.666,0,.81-.143.812-.808,0-.685-.135-.823-.836-.823h0c-.068,0-.159.007-.251.014a.487.487,0,0,0-.525.535c-.007.134-.008.269,0,.4C-1361.589,718.634-1361.453,718.772-1360.946,718.8Z" transform="translate(1379.332 -701.549)" fill="#435ebe"/>
  <path id="Path_2382" data-name="Path 2382" d="M-1651.248,457.058l.056-1.142c.006-.125.012-.248.019-.37.014-.261.028-.53.037-.8a35.324,35.324,0,0,0-.39-7.027,6.775,6.775,0,0,0-2.911-4.492,6.763,6.763,0,0,0-3.432-1.195c-.738-.067-1.485-.127-2.208-.185l-1.048-.085-.008,0-.081-.016-.1-.018h-2.6l-.037,0c-.125.009-.251.015-.383.022-.3.016-.613.033-.933.068-.275.03-.559.058-.834.084-.794.077-1.615.157-2.435.319a6.584,6.584,0,0,0-3.509,2.022,6.69,6.69,0,0,0-1.738,3.655c-.11.886-.185,1.78-.257,2.645-.033.392-.068.8-.1,1.193l-.009.056c0,.028-.01.056-.014.084l-.013.085v2.59l0,.036c.008.128.015.255.022.39.016.307.033.624.069.95.03.271.057.55.084.82.079.8.161,1.628.32,2.453a6.905,6.905,0,0,0,5.631,5.248,39.191,39.191,0,0,0,5.516.387c.3,0,.607,0,.909-.01.371-.009.743-.027,1.1-.045l.5-.024,1.156-.052a5.461,5.461,0,0,0,1.8.874c.2.053.386.091.554.125l.206.042.118.026h1.145l.166-.053.023-.007a5.453,5.453,0,0,0,3.1-1.562,5.416,5.416,0,0,0,1.537-3.2A5.479,5.479,0,0,0-1651.248,457.058Zm-8.826,6.571c-.538.024-1.058.057-1.578.068q-.442.01-.884.01a37.845,37.845,0,0,1-5.356-.376,5.782,5.782,0,0,1-4.677-4.341c-.2-1.046-.273-2.119-.39-3.182-.047-.428-.058-.86-.086-1.29v-2.467c.01-.069.024-.137.031-.206.117-1.268.2-2.54.358-3.8a5.671,5.671,0,0,1,4.342-4.7c1.042-.206,2.113-.272,3.173-.389.42-.047.844-.058,1.266-.086h2.462c.055.01.11.024.166.029,1.092.09,2.185.172,3.275.272a5.683,5.683,0,0,1,2.874.986,5.647,5.647,0,0,1,2.453,3.753,34.352,34.352,0,0,1,.376,6.8c-.014.379-.036.758-.056,1.154a5.543,5.543,0,0,0-3.264-1.072,5.7,5.7,0,0,0-3.941,1.59A5.645,5.645,0,0,0-1660.074,463.628Zm8.729-2.812a4.315,4.315,0,0,1-3.752,3.789.762.762,0,0,0-.12.037h-.849c-.233-.05-.47-.09-.7-.152a4.337,4.337,0,0,1-3.2-4.4,4.349,4.349,0,0,1,3.682-4.073,4.326,4.326,0,0,1,.662-.051A4.34,4.34,0,0,1-1651.345,460.816Z" transform="translate(1674.18 -441.73)" fill="#435ebe"/>
</svg>
