<svg xmlns="http://www.w3.org/2000/svg" width="24" height="24" viewBox="0 0 24 24">
  <path id="total_area" d="M15.158.632A.632.632,0,0,1,15.79,0h7.579A.632.632,0,0,1,24,.632V8.211a.632.632,0,0,1-1.263,0V2.156L14.973,9.92a.632.632,0,0,1-.893-.893l7.764-7.764H15.79A.632.632,0,0,1,15.158.632ZM9.92,14.08a.632.632,0,0,1,0,.893L2.156,22.737H8.211a.632.632,0,0,1,0,1.263H.632A.632.632,0,0,1,0,23.368V15.79a.632.632,0,1,1,1.263,0v6.054L9.027,14.08A.632.632,0,0,1,9.92,14.08Z" fill="#435ebe" fill-rule="evenodd"/>
</svg>
