<svg xmlns="http://www.w3.org/2000/svg" width="24" height="22.737" viewBox="0 0 24 22.737">
  <path id="usernamePrefix" d="M12,2.263a5.053,5.053,0,1,0,5.053,5.053A5.053,5.053,0,0,0,12,2.263ZM5.684,7.316A6.316,6.316,0,1,1,12,13.632,6.316,6.316,0,0,1,5.684,7.316ZM12,18.684A14.955,14.955,0,0,0,1.091,23.538a.632.632,0,1,1-.919-.866A16.218,16.218,0,0,1,12,17.421a16.218,16.218,0,0,1,11.828,5.251.632.632,0,1,1-.919.866A14.956,14.956,0,0,0,12,18.684Z" transform="translate(0 -1)" fill="#b3b3b3" fill-rule="evenodd"/>
</svg>
