<svg xmlns="http://www.w3.org/2000/svg" xmlns:xlink="http://www.w3.org/1999/xlink" width="120" height="120" viewBox="0 0 120 120">
  <defs>
    <clipPath id="clip-path">
      <rect id="Rectangle_9" data-name="Rectangle 9" width="120" height="120"/>
    </clipPath>
  </defs>
  <g id="image_message" clip-path="url(#clip-path)">
    <g id="image" transform="translate(0 6.246)">
      <circle id="Ellipse_1" data-name="Ellipse 1" cx="22.5" cy="22.5" r="22.5" transform="translate(22 46.754)" fill="#435ebe" opacity="0.1"/>
      <circle id="Ellipse_2" data-name="Ellipse 2" cx="4.5" cy="4.5" r="4.5" transform="translate(11 26.754)" fill="#435ebe" opacity="0.1"/>
      <circle id="Ellipse_3" data-name="Ellipse 3" cx="8" cy="8" r="8" transform="translate(0 56.754)" fill="#435ebe" opacity="0.1"/>
      <circle id="Ellipse_4" data-name="Ellipse 4" cx="8" cy="8" r="8" transform="translate(71 0.754)" fill="#435ebe" opacity="0.1"/>
      <ellipse id="Ellipse_5" data-name="Ellipse 5" cx="5.5" cy="5" rx="5.5" ry="5" transform="translate(109 77.754)" fill="#435ebe" opacity="0.1"/>
      <circle id="Ellipse_6" data-name="Ellipse 6" cx="2.5" cy="2.5" r="2.5" transform="translate(72 102.754)" fill="#435ebe" opacity="0.1"/>
      <circle id="Ellipse_7" data-name="Ellipse 7" cx="3" cy="3" r="3" transform="translate(114 -0.246)" fill="#435ebe" opacity="0.1"/>
      <path id="Path_1" data-name="Path 1" d="M99.8,43.675A16.809,16.809,0,0,1,97.111,50.6a15.42,15.42,0,0,1-9.732,6.468c-.7.14-.9.441-.9,1.142.02,7.35.02,14.679.02,22.029a7.4,7.4,0,0,1-6.428,7.63,8.354,8.354,0,0,1-1.422.08q-16.311,0-32.6-.02a3.274,3.274,0,0,0-2,.641c-1.922,1.382-3.865,2.744-5.828,4.105-1.3.9-2.243.6-2.8-.861-.381-.981-.781-1.943-1.1-2.944a1.115,1.115,0,0,0-1.282-.921,19.53,19.53,0,0,1-4.045-.12,7.359,7.359,0,0,1-5.968-7.109q-.03-18.174,0-36.327A7.287,7.287,0,0,1,30.275,37.2q18.925-.03,37.849.02a1.329,1.329,0,0,0,1.442-1c2.343-5.808,6.629-9.272,12.857-10.093a15.671,15.671,0,0,1,17.3,13.1c.02.14.081.28.121.441C99.8,40.991,99.8,42.333,99.8,43.675Zm-50.907-3.3H30.445A4.178,4.178,0,0,0,27.081,41.9a4.77,4.77,0,0,0-1,3.224v22.63c0,4.145.02,8.291,0,12.436a4.309,4.309,0,0,0,4.606,4.586c1.3-.08,2.6-.02,3.9-.02a1.883,1.883,0,0,1,2.083,1.442c.28.721.581,1.442.8,2.183.18.581.4.7.921.32,1.542-1.121,3.124-2.163,4.646-3.284a3.437,3.437,0,0,1,2.083-.661c3.5.02,6.989,0,10.494,0h23.31a4.076,4.076,0,0,0,4.326-4.025c.04-7.55.02-15.08.02-22.63,0-.481-.14-.7-.661-.741a15.76,15.76,0,0,1-14.12-15.765c-.02-1.2.02-1.2-1.162-1.2q-9.221-.032-18.443-.022ZM84.235,29.156a12.557,12.557,0,1,0,12.476,12.5,12.557,12.557,0,0,0-12.476-12.5Z" transform="translate(-0.92 -1.046)" fill="#435ebe"/>
      <path id="Path_2" data-name="Path 2" d="M61.372,64.974a5.6,5.6,0,0,1-5.607,5.547,5.7,5.7,0,0,1-5.547-5.587,5.6,5.6,0,0,1,5.647-5.587,5.518,5.518,0,0,1,5.507,5.627Zm-5.527,2.343a2.407,2.407,0,1,0-2.423-2.42,2.381,2.381,0,0,0,2.423,2.42Z" transform="translate(-2.009 -2.38)" fill="#435ebe"/>
      <path id="Path_3" data-name="Path 3" d="M47.771,64.934a5.628,5.628,0,0,1-5.587,5.587,5.7,5.7,0,0,1-5.567-5.627,5.578,5.578,0,0,1,11.155.04Zm-3.2-.06A2.372,2.372,0,0,0,42.2,62.491a2.419,2.419,0,0,0-2.383,2.463,2.374,2.374,0,1,0,4.746-.08Z" transform="translate(-1.465 -2.38)" fill="#435ebe"/>
      <path id="Path_4" data-name="Path 4" d="M74.955,64.894a5.556,5.556,0,0,1-5.507,5.627,5.615,5.615,0,0,1-5.587-5.647,5.551,5.551,0,0,1,5.527-5.527,5.476,5.476,0,0,1,5.567,5.547Zm-5.507,2.423a2.423,2.423,0,1,0-1.731-.687,2.419,2.419,0,0,0,1.731.687Z" transform="translate(-2.554 -2.38)" fill="#435ebe"/>
      <path id="Path_5" data-name="Path 5" d="M89.087,43.169v4.866c0,1.142-.621,1.9-1.562,1.922a1.616,1.616,0,0,1-1.6-1.8c-.06-2.3-.02-4.586-.04-6.889,0-.24-.02-.5,0-.741.06-.641-.06-1.021-.861-1.041a1.419,1.419,0,0,1-1.3-1.562,1.48,1.48,0,0,1,1.322-1.482,20.291,20.291,0,0,1,2.7,0,1.488,1.488,0,0,1,1.322,1.642C89.087,39.765,89.087,41.467,89.087,43.169Z" transform="translate(-3.349 -1.461)" fill="#435ebe"/>
    </g>
  </g>
</svg>
