<svg xmlns="http://www.w3.org/2000/svg" width="44" height="44" viewBox="0 0 44 44">
  <g id="work" transform="translate(0 -0.5)">
    <rect id="Rectangle_10" data-name="Rectangle 10" width="44" height="44" rx="8" transform="translate(0 0.5)" fill="#fff"/>
    <path id="Path_10" data-name="Path 10" d="M11.31,12.167a.572.572,0,0,1,.585-.138l3.429,1.143a.571.571,0,0,1,.391.542v3.192l4.57,4.57a1.291,1.291,0,0,0,.206-.238.412.412,0,0,0,.065-.213.363.363,0,0,0,0-.049c0-.037-.009-.089-.021-.161-.023-.147-.062-.342-.117-.625a6.859,6.859,0,0,1,10.167-7.267.571.571,0,0,1,.117.9l-3,3c-.233.233-.383.384-.488.507a.652.652,0,0,0-.136.2.571.571,0,0,0,0,.353.652.652,0,0,0,.136.2c.105.124.255.275.488.508l.271.271c.233.233.384.383.507.488a.652.652,0,0,0,.2.136.573.573,0,0,0,.353,0,.651.651,0,0,0,.2-.136c.124-.105.275-.255.508-.488l2.809-2.809a.571.571,0,0,1,.933.187,6.862,6.862,0,0,1-5.579,9.42l4.21,4.209a3,3,0,1,1-4.237,4.237L22,28.237l-5.882,5.882a3,3,0,0,1-4.237-4.237l7.6-7.6-4.571-4.571H11.714a.571.571,0,0,1-.542-.391L10.029,13.9a.572.572,0,0,1,.138-.585Zm3.261,4.4V14.126l-2.7-.9-.643.643.9,2.7Zm6.117,6.12-8,8a1.853,1.853,0,1,0,2.62,2.62l8.18-8.179.055-.055.105-.105.162-.162a1.7,1.7,0,0,1,.295-.236,1.312,1.312,0,0,1,.115-.07,1.517,1.517,0,0,1,.639-.194l.049,0a2.023,2.023,0,0,1,.717.064q.2.055.4.095h0l.075.014q.243.045.493.068.269.026.546.026a5.72,5.72,0,0,0,5.56-7.038L30.539,19.7c-.213.213-.4.4-.56.536a1.746,1.746,0,0,1-.591.352,1.715,1.715,0,0,1-1.059,0,1.746,1.746,0,0,1-.591-.352c-.164-.139-.347-.323-.56-.536l-.3-.3c-.213-.213-.4-.4-.536-.56a1.745,1.745,0,0,1-.352-.591,1.714,1.714,0,0,1,0-1.059,1.745,1.745,0,0,1,.352-.591c.139-.164.323-.347.536-.56l2.457-2.457a5.719,5.719,0,0,0-7.793,6.394l0,.012c.053.268.1.485.123.656a2.009,2.009,0,0,1,.031.5,1.517,1.517,0,0,1-.194.639,3.166,3.166,0,0,1-.573.677l-.055.055-.178.178h0Zm2.12,4.737L28.69,33.31a1.853,1.853,0,1,0,2.62-2.62l-5.029-5.029q-.239-.03-.472-.076c-.282-.056-.478-.094-.625-.117-.072-.011-.123-.018-.161-.021l-.038,0a.668.668,0,0,0-.27.1c-.06.046-.164.145-.413.394l0,0Z" fill-rule="evenodd"/>
  </g>
</svg>
