<svg id="mainlogo" xmlns="http://www.w3.org/2000/svg" width="102" height="102" viewBox="0 0 102 102">
  <rect id="logoback" width="102" height="102" fill="none"/>
  <path id="eclassify" d="M156.253,36.187,116.6.787a3.3,3.3,0,0,0-4.277,0L100.4,11.423V7.841A2.153,2.153,0,0,0,98.249,5.7H94.3a2.153,2.153,0,0,0-2.154,2.143V18.79l-19.487,17.4c-1.175,1.05-.845,1.91.733,1.91h3.743a2.872,2.872,0,0,1,2.871,2.856v36.19A2.871,2.871,0,0,0,82.877,80h63.161a2.871,2.871,0,0,0,2.868-2.856V40.952a2.872,2.872,0,0,1,2.871-2.856h3.743c1.578,0,1.908-.859.733-1.91M130.808,61.923a19.319,19.319,0,0,1-7.152,6.416c-.349.187-.707.359-1.067.515a19.364,19.364,0,0,1-7.932,1.688c-10.861,0-19.372-8.207-19.372-18.691q0-.309.011-.618a18.7,18.7,0,0,1,.423-3.433,19.379,19.379,0,0,1,18.938-15.223,19.567,19.567,0,0,1,5.843.886,19.283,19.283,0,0,1,11.452,9.685,3.1,3.1,0,0,1-1.5,4.228l-.775.351-.165.073-3.163,1.425L121.9,51.234l-10.2,4.6-2.215,1a3.1,3.1,0,0,1-1.282.279h-.011a3.13,3.13,0,0,1-2.834-1.826,3.062,3.062,0,0,1-.077-2.371,3.01,3.01,0,0,1,.484-.844,2.938,2.938,0,0,1,1.044-.836.723.723,0,0,1,.1-.054l2.065-.932,5.432-2.448,9.513-4.289.622-.279a13.218,13.218,0,0,0-13.284-4.006,13.18,13.18,0,0,0-9.095,8.574,12.872,12.872,0,0,0-.63,3.433c-.011.206-.015.412-.015.618s0,.413.015.619a12.276,12.276,0,0,0,6.4,10.166,13.794,13.794,0,0,0,6.718,1.7,13.129,13.129,0,0,0,10.661-5.431c.1-.137.2-.279.291-.42a3.138,3.138,0,0,1,4.327-.871,2.56,2.56,0,0,1,.234.172,3.058,3.058,0,0,1,.879,1.131,3.1,3.1,0,0,1-.242,3" transform="translate(-63.457 11)" fill="#087c7c"/>
</svg>
