<svg id="textlogo" xmlns="http://www.w3.org/2000/svg" width="150" height="36" viewBox="0 0 150 36">
  <g id="eclassify_text" transform="translate(257.815 -218.326)">
    <rect id="safearea" width="150" height="36" transform="translate(-257.815 218.326)" fill="none"/>
    <g id="eclassify_text-2" data-name="eclassify_text" transform="translate(0.5 -0.237)">
      <path id="Path_11372" data-name="Path 11372" d="M9.862,233.608a9.23,9.23,0,0,1-6.984-2.687,11.074,11.074,0,0,1-2.835-7.344Q0,223.027,0,222.158t.042-1.417a12.376,12.376,0,0,1,1.4-5.27A8.724,8.724,0,0,1,4.8,211.979a9.9,9.9,0,0,1,5.015-1.227,10.049,10.049,0,0,1,5.4,1.355,8.64,8.64,0,0,1,3.323,3.851,13.923,13.923,0,0,1,1.143,5.841v.72a.931.931,0,0,1-.275.72.991.991,0,0,1-.7.254H4.063v.381a8.847,8.847,0,0,0,.762,3.238,5.943,5.943,0,0,0,1.968,2.434,5.03,5.03,0,0,0,3.026.931,6.085,6.085,0,0,0,2.54-.465,6.5,6.5,0,0,0,1.651-1.037,4.9,4.9,0,0,0,.846-.91,2.2,2.2,0,0,1,.593-.613,1.605,1.605,0,0,1,.677-.106H18.2a.985.985,0,0,1,.656.233.713.713,0,0,1,.233.656,3.279,3.279,0,0,1-.677,1.545,8.3,8.3,0,0,1-1.8,1.8,9.821,9.821,0,0,1-2.878,1.46,12.208,12.208,0,0,1-3.873.571m-5.8-13.036h11.6v-.127a7.853,7.853,0,0,0-.7-3.386,5.632,5.632,0,0,0-2.01-2.348,5.55,5.55,0,0,0-3.132-.868,5.444,5.444,0,0,0-3.11.868,5.526,5.526,0,0,0-1.968,2.348,8.064,8.064,0,0,0-.677,3.386Z" transform="translate(-258.315 18.193)" fill="#fff"/>
      <path id="Path_11373" data-name="Path 11373" d="M54.442,225.18a.926.926,0,0,1-.72-.275.989.989,0,0,1-.254-.7V196.567a1.051,1.051,0,0,1,.254-.741.931.931,0,0,1,.72-.275h11.6a11.292,11.292,0,0,1,5.185,1.037,6.751,6.751,0,0,1,2.963,2.814,8.287,8.287,0,0,1,.952,3.979,7.12,7.12,0,0,1-.571,2.984A6.29,6.29,0,0,1,73.15,208.4,7.881,7.881,0,0,1,71.5,209.6a7.906,7.906,0,0,1,2.941,2.624,7.416,7.416,0,0,1,1.291,4.4,8.81,8.81,0,0,1-1.058,4.275,7.786,7.786,0,0,1-3.154,3.111,10.45,10.45,0,0,1-5.142,1.164Zm3.174-17.1H65.4a5.981,5.981,0,0,0,4.105-1.248,4.339,4.339,0,0,0,1.4-3.407,4.019,4.019,0,0,0-1.4-3.3A6.357,6.357,0,0,0,65.4,198.98H57.616Zm0,13.671h8.211a5.665,5.665,0,0,0,4.19-1.482,5.29,5.29,0,0,0,0-7.343,5.716,5.716,0,0,0-4.19-1.46H57.616Z" transform="translate(-286.474 26.199)" fill="#fff"/>
      <path id="Path_11374" data-name="Path 11374" d="M113.008,233.655a.942.942,0,0,1-.974-.974v-20.02a1.02,1.02,0,0,1,.276-.719.913.913,0,0,1,.7-.3h1.947a1.013,1.013,0,0,1,1.016,1.016v1.862a5.372,5.372,0,0,1,2.328-2.159,8.179,8.179,0,0,1,3.6-.72h1.651a.941.941,0,0,1,.973.974v1.735a.879.879,0,0,1-.275.677.991.991,0,0,1-.7.254h-2.54a4.818,4.818,0,0,0-3.6,1.333,4.935,4.935,0,0,0-1.312,3.619v12.443a.913.913,0,0,1-.3.7,1.02,1.02,0,0,1-.72.275Z" transform="translate(-317.316 17.725)" fill="#fff"/>
      <path id="Path_11375" data-name="Path 11375" d="M153.05,233.608a10.744,10.744,0,0,1-5.376-1.227,8.25,8.25,0,0,1-3.3-3.407A11.707,11.707,0,0,1,143.1,224q-.043-.719-.043-1.841t.043-1.8a11.465,11.465,0,0,1,1.29-4.994,8.429,8.429,0,0,1,3.323-3.386,12.2,12.2,0,0,1,10.666,0,8.435,8.435,0,0,1,3.322,3.386A11.472,11.472,0,0,1,163,220.36q.041.678.042,1.8T163,224a11.734,11.734,0,0,1-1.27,4.973,8.254,8.254,0,0,1-3.3,3.407,10.739,10.739,0,0,1-5.375,1.227m0-3.259a5.465,5.465,0,0,0,4.19-1.672,7.351,7.351,0,0,0,1.694-4.888q.04-.635.042-1.608t-.042-1.608a7.355,7.355,0,0,0-1.694-4.889,5.468,5.468,0,0,0-4.19-1.672,5.536,5.536,0,0,0-4.211,1.672,7.131,7.131,0,0,0-1.672,4.889q-.043.634-.042,1.608t.042,1.608a7.127,7.127,0,0,0,1.672,4.888,5.533,5.533,0,0,0,4.211,1.672" transform="translate(-333.657 18.193)" fill="#fff"/>
      <path id="Path_11376" data-name="Path 11376" d="M197.5,224.708a.942.942,0,0,1-.974-.974v-28.1a.942.942,0,0,1,.974-.974h1.989a.942.942,0,0,1,.974.974V210.36l8.338-6.941a5.327,5.327,0,0,1,.783-.571,2.042,2.042,0,0,1,.909-.149h2.243a.87.87,0,0,1,.889.889.878.878,0,0,1-.106.381,1.243,1.243,0,0,1-.4.424l-9.777,8.126,10.835,10.539q.508.424.508.763a.868.868,0,0,1-.889.889h-2.2a2.182,2.182,0,0,1-.931-.148,3.737,3.737,0,0,1-.762-.571l-9.438-9.015v8.761a.942.942,0,0,1-.974.974Z" transform="translate(-361.815 26.67)" fill="#fff"/>
      <path id="Path_11377" data-name="Path 11377" d="M248.058,233.608a9.228,9.228,0,0,1-6.983-2.687,11.076,11.076,0,0,1-2.836-7.344q-.043-.55-.042-1.418t.042-1.417a12.369,12.369,0,0,1,1.4-5.27A8.723,8.723,0,0,1,243,211.979a9.9,9.9,0,0,1,5.016-1.227,10.049,10.049,0,0,1,5.4,1.355,8.635,8.635,0,0,1,3.322,3.851,13.909,13.909,0,0,1,1.143,5.841v.72a.93.93,0,0,1-.276.72.989.989,0,0,1-.7.254H242.26v.381a8.835,8.835,0,0,0,.761,3.238,5.956,5.956,0,0,0,1.969,2.434,5.03,5.03,0,0,0,3.026.931,6.088,6.088,0,0,0,2.54-.465,6.506,6.506,0,0,0,1.65-1.037,4.926,4.926,0,0,0,.847-.91,2.192,2.192,0,0,1,.592-.613,1.606,1.606,0,0,1,.677-.106H256.4a.986.986,0,0,1,.656.233.713.713,0,0,1,.233.656,3.275,3.275,0,0,1-.677,1.545,8.3,8.3,0,0,1-1.8,1.8,9.822,9.822,0,0,1-2.878,1.46,12.21,12.21,0,0,1-3.873.571m-5.8-13.036h11.6v-.127a7.86,7.86,0,0,0-.7-3.386,5.636,5.636,0,0,0-2.011-2.348,5.548,5.548,0,0,0-3.132-.868,5.445,5.445,0,0,0-3.111.868,5.524,5.524,0,0,0-1.968,2.348,8.057,8.057,0,0,0-.677,3.386Z" transform="translate(-383.759 18.193)" fill="#fff"/>
      <path id="Path_11378" data-name="Path 11378" d="M291.478,233.655a.942.942,0,0,1-.974-.974v-20.02a1.018,1.018,0,0,1,.276-.719.912.912,0,0,1,.7-.3h1.947a1.012,1.012,0,0,1,1.016,1.016v1.862a5.377,5.377,0,0,1,2.328-2.159,8.183,8.183,0,0,1,3.6-.72h1.651a.942.942,0,0,1,.973.974v1.735a.876.876,0,0,1-.275.677.988.988,0,0,1-.7.254h-2.54a4.818,4.818,0,0,0-3.6,1.333,4.935,4.935,0,0,0-1.312,3.619v12.443a.914.914,0,0,1-.3.7,1.019,1.019,0,0,1-.72.275Z" transform="translate(-411.305 17.725)" fill="#fff"/>
    </g>
  </g>
</svg>
