<?xml version="1.0" encoding="UTF-8"?>
<svg version="1.1" xmlns="http://www.w3.org/2000/svg" width="500" height="97">
<path d="M0 0 C165 0 330 0 500 0 C500 32.01 500 64.02 500 97 C335 97 170 97 0 97 C0 64.99 0 32.98 0 0 Z " fill="#0E1A26" transform="translate(0,0)"/>
<path d="M0 0 C1.90318884 2.85478326 2.4619099 4.41941308 3.125 7.6875 C3.37636719 8.89986328 3.37636719 8.89986328 3.6328125 10.13671875 C3.75398438 10.75160156 3.87515625 11.36648438 4 12 C5.2375 12.0928125 5.2375 12.0928125 6.5 12.1875 C13.2904512 13.76385474 18.38132343 17.71397747 22.7890625 23.03125 C24.1599416 25.26003408 24.61757233 27.20597504 25.1875 29.75 C25.70735112 32.07242396 25.70735112 32.07242396 27 34 C30.56442187 35.68143115 34.11498211 36.42615186 38 37 C35.6870518 39.3129482 34.52095125 39.49580975 31.375 40.125 C30.55773437 40.29257812 29.74046875 40.46015625 28.8984375 40.6328125 C27.95871094 40.81457031 27.95871094 40.81457031 27 41 C26.95875 41.78375 26.9175 42.5675 26.875 43.375 C24.87301693 51.66892986 20.46303635 57.48364963 13.24609375 61.92578125 C11 63 11 63 7.125 63.6875 C3.7949026 64.66053415 3.7949026 64.66053415 2.90234375 67.55859375 C2.13429899 70.36285022 1.50267745 73.13713221 1 76 C0.01 75.505 0.01 75.505 -1 75 C-1.6328125 72.49609375 -1.6328125 72.49609375 -2.125 69.4375 C-2.37636719 67.91962891 -2.37636719 67.91962891 -2.6328125 66.37109375 C-2.81457031 65.19740234 -2.81457031 65.19740234 -3 64 C-3.969375 63.95875 -4.93875 63.9175 -5.9375 63.875 C-12.03432299 62.96171073 -16.88558705 59.43223702 -20.87109375 54.84765625 C-24.1324079 50.27243136 -25.7609666 46.6172849 -26 41 C-27.5778125 40.814375 -27.5778125 40.814375 -29.1875 40.625 C-32.45958771 40.08859218 -35.00536076 39.36119965 -38 38 C-34.96004065 35.97336043 -33.95294646 35.80005938 -30.5 35.4375 C-28.07515764 35.0366557 -28.07515764 35.0366557 -26 34 C-24.82855435 31.85234964 -24.36286009 29.82440348 -23.79296875 27.44921875 C-21.7450266 21.12380138 -15.73893183 15.989027 -10 13 C-6.125 12.25 -6.125 12.25 -3 12 C-2.814375 10.14375 -2.814375 10.14375 -2.625 8.25 C-2.24253695 5.1237803 -1.69450477 2.71120763 0 0 Z " fill="#0AADAF" transform="translate(342,4)"/>
<path d="M0 0 C4.29 -0.0825 8.58 -0.165 13 -0.25 C14.33675781 -0.28641602 15.67351563 -0.32283203 17.05078125 -0.36035156 C24.18365288 -0.42655486 29.01073864 -0.00243908 35 4 C37.45485943 7.68228915 37.82932584 10.72454348 37 15 C35.55625961 17.3894658 33.99679341 19.00320659 32 21 C32.969375 21.78375 33.93875 22.5675 34.9375 23.375 C36.83962346 24.91288705 37.89629957 25.79259913 39 28 C39.39400788 32.09768199 39.23388098 34.51352757 37.4375 38.25 C33.69159632 42.47614774 30.3411734 43.8263676 24.80688477 44.23681641 C21.05301482 44.29511812 17.31631549 44.26083276 13.5625 44.1875 C6.8490625 44.0946875 6.8490625 44.0946875 0 44 C0 29.48 0 14.96 0 0 Z " fill="#00F5F3" transform="translate(16,22)"/>
<path d="M0 0 C4.29 0 8.58 0 13 0 C18.445 11.88 18.445 11.88 24 24 C26.23968237 21.76031763 27.09009463 19.87594274 28.3828125 16.9921875 C28.82753906 16.00605469 29.27226562 15.01992188 29.73046875 14.00390625 C30.19066406 12.97136719 30.65085937 11.93882813 31.125 10.875 C31.59292969 9.83472656 32.06085938 8.79445313 32.54296875 7.72265625 C33.69936843 5.15025697 34.85020981 2.57536032 36 0 C40.29 0 44.58 0 49 0 C49 14.52 49 29.04 49 44 C45.7 44 42.4 44 39 44 C38.505 31.13 38.505 31.13 38 18 C35.08048608 24.86496666 35.08048608 24.86496666 32.16625977 31.73217773 C31.80330811 32.58239502 31.44035645 33.4326123 31.06640625 34.30859375 C30.69459229 35.18314209 30.32277832 36.05769043 29.93969727 36.95874023 C29 39 29 39 28 40 C25.66702567 40.04092937 23.33294775 40.04241723 21 40 C19.89442408 37.64648632 18.79051018 35.2922159 17.6875 32.9375 C17.2244043 31.95233398 17.2244043 31.95233398 16.75195312 30.94726562 C16.44580078 30.29306641 16.13964844 29.63886719 15.82421875 28.96484375 C15.54666748 28.3730835 15.26911621 27.78132324 14.9831543 27.17163086 C13.60849875 24.13523625 12.31296145 21.06357672 11 18 C10.67 26.58 10.34 35.16 10 44 C6.7 44 3.4 44 0 44 C0 29.48 0 14.96 0 0 Z " fill="#00F6F3" transform="translate(435,22)"/>
<path d="M0 0 C5.9090625 -0.12375 5.9090625 -0.12375 11.9375 -0.25 C13.16073975 -0.28641602 14.38397949 -0.32283203 15.64428711 -0.36035156 C22.55120131 -0.42986356 28.08353243 0.24639204 34 4 C37.60619361 7.60619361 38.27863838 10.55625721 38.5 15.5 C38.27899893 21.74753023 36.38010808 24.61989192 32 29 C32.37814522 32.63663064 34.30314008 35.60561205 36.0625 38.75 C37.5165625 41.34875 37.5165625 41.34875 39 44 C34.71 44 30.42 44 26 44 C21 34.25 21 34.25 21 32 C17.7 32 14.4 32 11 32 C11 35.96 11 39.92 11 44 C7.37 44 3.74 44 0 44 C0 29.48 0 14.96 0 0 Z " fill="#00F9F6" transform="translate(61,22)"/>
<path d="M0 0 C6.249375 -0.0928125 6.249375 -0.0928125 12.625 -0.1875 C13.92775879 -0.21481201 15.23051758 -0.24212402 16.57275391 -0.27026367 C23.33767435 -0.31896607 28.46227426 -0.30243757 33.64453125 4.53515625 C37.43945224 9.49774524 38.8039031 12.70092363 38 19 C36.70156589 22.84820886 35.47460273 26.1550634 31.859375 28.2265625 C31.24578125 28.48179688 30.6321875 28.73703125 30 29 C30.6496875 29.99902344 31.299375 30.99804688 31.96875 32.02734375 C32.81261881 33.33065225 33.65636236 34.63404185 34.5 35.9375 C34.92925781 36.59685547 35.35851562 37.25621094 35.80078125 37.93554688 C39 42.88671875 39 42.88671875 39 44 C34.71 44 30.42 44 26 44 C24.7934375 41.3084375 24.7934375 41.3084375 23.5625 38.5625 C21.43630314 34.38267758 21.43630314 34.38267758 17.59765625 32.046875 C14.85339064 31.72876112 14.85339064 31.72876112 11 32 C11 35.96 11 39.92 11 44 C7.37 44 3.74 44 0 44 C0 29.48 0 14.96 0 0 Z " fill="#00FAF7" transform="translate(390,22)"/>
<path d="M0 0 C10 0 10 0 12.34106445 1.54125977 C12.843396 2.25080811 13.34572754 2.96035645 13.86328125 3.69140625 C14.44013672 4.47193359 15.01699219 5.25246094 15.61132812 6.05664062 C16.17271484 6.88357422 16.73410156 7.71050781 17.3125 8.5625 C17.89322266 9.36236328 18.47394531 10.16222656 19.07226562 10.98632812 C20.7465201 13.303799 22.3726722 15.64941541 24 18 C26.475 21.465 26.475 21.465 29 25 C29.33 16.75 29.66 8.5 30 0 C33.3 0 36.6 0 40 0 C40 14.52 40 29.04 40 44 C30 44 30 44 27.44360352 42.15161133 C26.54532837 40.87966919 26.54532837 40.87966919 25.62890625 39.58203125 C24.95279297 38.65712891 24.27667969 37.73222656 23.58007812 36.77929688 C22.91427734 35.80025391 22.24847656 34.82121094 21.5625 33.8125 C20.86962891 32.85279297 20.17675781 31.89308594 19.46289062 30.90429688 C16.44376609 26.68919064 13.67037564 22.45062607 11 18 C10.67 26.58 10.34 35.16 10 44 C6.7 44 3.4 44 0 44 C0 29.48 0 14.96 0 0 Z " fill="#00FBF8" transform="translate(175,22)"/>
<path d="M0 0 C1.65322266 0.01740234 1.65322266 0.01740234 3.33984375 0.03515625 C4.44457031 0.04417969 5.54929688 0.05320312 6.6875 0.0625 C7.54214844 0.07410156 8.39679688 0.08570312 9.27734375 0.09765625 C11.84329788 6.20216793 14.40650745 12.30782649 16.96777344 18.41430664 C17.84018156 20.49335083 18.71322758 22.57212746 19.58691406 24.65063477 C20.83955319 27.63097855 22.08992673 30.61226376 23.33984375 33.59375 C23.73357178 34.52916122 24.1272998 35.46457245 24.53295898 36.42832947 C24.89333252 37.28914627 25.25370605 38.14996307 25.625 39.03686523 C25.94476807 39.798535 26.26453613 40.56020477 26.59399414 41.34495544 C27.27734375 43.09765625 27.27734375 43.09765625 27.27734375 44.09765625 C23.31734375 44.09765625 19.35734375 44.09765625 15.27734375 44.09765625 C12.27734375 38.34765625 12.27734375 38.34765625 12.27734375 36.09765625 C5.67734375 36.09765625 -0.92265625 36.09765625 -7.72265625 36.09765625 C-8.21765625 38.57265625 -8.21765625 38.57265625 -8.72265625 41.09765625 C-9.05265625 42.08765625 -9.38265625 43.07765625 -9.72265625 44.09765625 C-13.68265625 44.09765625 -17.64265625 44.09765625 -21.72265625 44.09765625 C-19.82232991 38.17972511 -17.71355539 32.49064646 -15.18359375 26.81640625 C-14.85726959 26.07684692 -14.53094543 25.3372876 -14.19473267 24.57531738 C-13.51262415 23.03177337 -12.82855563 21.48909409 -12.14257812 19.94726562 C-11.08877684 17.57769003 -10.0420018 15.20509992 -8.99609375 12.83203125 C-8.32983365 11.32664291 -7.66318146 9.82142803 -6.99609375 8.31640625 C-6.52579239 7.25093567 -6.52579239 7.25093567 -6.04598999 6.16394043 C-3.35096411 0.1201924 -3.35096411 0.1201924 0 0 Z " fill="#00F7F5" transform="translate(123.72265625,21.90234375)"/>
<path d="M0 0 C0.71027344 -0.00128906 1.42054688 -0.00257812 2.15234375 -0.00390625 C7.87211526 0.11090668 12.40821721 1.32344627 17.3125 4.375 C16.22181332 8.15045388 15.4041909 10.84543472 12.3125 13.375 C11.36375 12.88 10.415 12.385 9.4375 11.875 C4.79662567 9.84521308 0.28859428 10.10466892 -4.6875 10.375 C-4.41132467 12.31574861 -4.41132467 12.31574861 -3.6875 14.375 C-0.86720408 16.25519728 0.91628196 16.91208592 4.125 17.75 C9.88168823 19.41397704 13.89507598 21.24886397 17.3125 26.375 C17.99931317 31.08685778 18.01145195 35.11150993 15.6875 39.3125 C9.72172305 44.4933063 4.42910342 44.83712901 -3.19921875 44.66796875 C-9.39004052 44.14802291 -15.00700051 42.64849953 -19.6875 38.375 C-18.59681332 34.59954612 -17.7791909 31.90456528 -14.6875 29.375 C-13.615 30.014375 -12.5425 30.65375 -11.4375 31.3125 C-5.99554074 34.38650094 -1.88420901 34.47827848 4.3125 34.375 C4.6425 33.055 4.9725 31.735 5.3125 30.375 C4.405 29.983125 3.4975 29.59125 2.5625 29.1875 C1.61890625 28.77757812 1.61890625 28.77757812 0.65625 28.359375 C-1.12359843 27.61183866 -2.91816354 26.89922801 -4.71875 26.203125 C-5.7809375 25.78546875 -6.843125 25.3678125 -7.9375 24.9375 C-8.95328125 24.54691406 -9.9690625 24.15632813 -11.015625 23.75390625 C-13.92100713 22.2544912 -15.12886043 21.22731042 -16.6875 18.375 C-17.48643471 14.34037972 -17.61525262 10.17896343 -15.703125 6.4609375 C-11.2121147 0.83331348 -6.90460576 -0.01283384 0 0 Z " fill="#00F8F5" transform="translate(240.6875,21.625)"/>
<path d="M0 0 C1.90318884 2.85478326 2.4619099 4.41941308 3.125 7.6875 C3.37636719 8.89986328 3.37636719 8.89986328 3.6328125 10.13671875 C3.75398438 10.75160156 3.87515625 11.36648438 4 12 C5.2375 12.0928125 5.2375 12.0928125 6.5 12.1875 C13.2904512 13.76385474 18.38132343 17.71397747 22.7890625 23.03125 C24.1599416 25.26003408 24.61757233 27.20597504 25.1875 29.75 C25.70735112 32.07242396 25.70735112 32.07242396 27 34 C30.56442187 35.68143115 34.11498211 36.42615186 38 37 C35.6870518 39.3129482 34.52095125 39.49580975 31.375 40.125 C30.55773437 40.29257812 29.74046875 40.46015625 28.8984375 40.6328125 C27.95871094 40.81457031 27.95871094 40.81457031 27 41 C26.95875 41.78375 26.9175 42.5675 26.875 43.375 C24.87301693 51.66892986 20.46303635 57.48364963 13.24609375 61.92578125 C11 63 11 63 7.125 63.6875 C3.7949026 64.66053415 3.7949026 64.66053415 2.90234375 67.55859375 C2.13429899 70.36285022 1.50267745 73.13713221 1 76 C0.01 75.505 0.01 75.505 -1 75 C-1.6328125 72.49609375 -1.6328125 72.49609375 -2.125 69.4375 C-2.37636719 67.91962891 -2.37636719 67.91962891 -2.6328125 66.37109375 C-2.81457031 65.19740234 -2.81457031 65.19740234 -3 64 C-3.969375 63.95875 -4.93875 63.9175 -5.9375 63.875 C-12.03432299 62.96171073 -16.88558705 59.43223702 -20.87109375 54.84765625 C-24.1324079 50.27243136 -25.7609666 46.6172849 -26 41 C-27.5778125 40.814375 -27.5778125 40.814375 -29.1875 40.625 C-32.45958771 40.08859218 -35.00536076 39.36119965 -38 38 C-34.96004065 35.97336043 -33.95294646 35.80005938 -30.5 35.4375 C-28.07515764 35.0366557 -28.07515764 35.0366557 -26 34 C-24.82855435 31.85234964 -24.36286009 29.82440348 -23.79296875 27.44921875 C-21.7450266 21.12380138 -15.73893183 15.989027 -10 13 C-6.125 12.25 -6.125 12.25 -3 12 C-2.814375 10.14375 -2.814375 10.14375 -2.625 8.25 C-2.24253695 5.1237803 -1.69450477 2.71120763 0 0 Z M-18.5 24.1875 C-21.66840851 28.79049347 -22.18310565 31.56398053 -22.25 37.25 C-22.27578125 38.55453125 -22.3015625 39.8590625 -22.328125 41.203125 C-21.75024748 47.88999349 -18.81877717 51.55189799 -14 56 C-13.34 56.66 -12.68 57.32 -12 58 C-8.77096837 58.45070231 -5.5068715 58.32403283 -2.25 58.3125 C-1.35539062 58.32861328 -0.46078125 58.34472656 0.4609375 58.36132812 C5.73051691 58.36521425 9.46013062 57.97000801 14 55 C17.07810201 51.96333442 17.07810201 51.96333442 18 48 C18.66 48 19.32 48 20 48 C22.85503042 42.28993917 21.88038885 33.18060488 21 27 C19.340571 23.25110705 17.36927584 21.27410014 14 19 C13.39800781 18.55527344 12.79601562 18.11054688 12.17578125 17.65234375 C1.47423991 11.03399009 -11.19226142 14.68051308 -18.5 24.1875 Z " fill="#01F2F0" transform="translate(342,4)"/>
<path d="M0 0 C0 1.65 0 3.3 0 5 C0.99 5 1.98 5 3 5 C2.67 3.35 2.34 1.7 2 0 C5.07396408 0.07088806 8.00442359 0.28170015 11 1 C14.27912726 4.48407271 14.54359454 8.34466431 15 13 C13.68 13 12.36 13 11 13 C11 13.99 11 14.98 11 16 C12.98 16 14.96 16 17 16 C16.97851051 20.83513506 16.74363117 24.82630298 13.4375 28.5625 C10.86406957 30.83538381 9.04105801 31.3567972 5.625 31.375 C4.42875 31.25125 3.2325 31.1275 2 31 C2.33 28.69 2.66 26.38 3 24 C1.68 24 0.36 24 -1 24 C-0.67 26.31 -0.34 28.62 0 31 C-3.1875 31.8125 -3.1875 31.8125 -7 32 C-10.02779177 29.57776658 -11.85464009 27.21803987 -14 24 C-14.25760279 21.30547479 -14.08900053 18.71451625 -14 16 C-12.35 16 -10.7 16 -9 16 C-9 15.01 -9 14.02 -9 13 C-10.32 13 -11.64 13 -13 13 C-13.3937494 9.71875504 -13.6709542 7.10863759 -11.91015625 4.19921875 C-8.23857937 0.11860678 -5.5997767 -0.6719732 0 0 Z " fill="#087E84" transform="translate(341,27)"/>
<path d="M0 0 C12.54 0 25.08 0 38 0 C38 2.97 38 5.94 38 9 C33.71 9 29.42 9 25 9 C25 20.55 25 32.1 25 44 C21.37 44 17.74 44 14 44 C14 32.45 14 20.9 14 9 C9.38 9 4.76 9 0 9 C0 6.03 0 3.06 0 0 Z " fill="#00F9F6" transform="translate(260,22)"/>
<path d="M0 0 C3.63 0 7.26 0 11 0 C11 14.52 11 29.04 11 44 C7.37 44 3.74 44 0 44 C0 29.48 0 14.96 0 0 Z " fill="#00FDFA" transform="translate(155,22)"/>
<path d="M0 0 C3.8214684 2.22252765 6.6640467 5.11795137 9.625 8.375 C9.295 9.035 8.965 9.695 8.625 10.375 C8.24730469 9.88128906 7.86960937 9.38757812 7.48046875 8.87890625 C3.83189894 4.63221024 1.36124029 2.90664648 -4.3125 2.4375 C-5.99932059 2.38528348 -7.68750659 2.35363932 -9.375 2.375 C-9.045 5.345 -8.715 8.315 -8.375 11.375 C-9.365 11.375 -10.355 11.375 -11.375 11.375 C-11.375 9.725 -11.375 8.075 -11.375 6.375 C-15.51530433 6.61854731 -17.8781277 7.00774656 -21.25 9.5 C-23.74225344 12.8718723 -24.13145269 15.23469567 -24.375 19.375 C-23.055 19.375 -21.735 19.375 -20.375 19.375 C-20.375 20.365 -20.375 21.355 -20.375 22.375 C-23.015 22.045 -25.655 21.715 -28.375 21.375 C-28.045 25.995 -27.715 30.615 -27.375 35.375 C-32.74279084 30.00720916 -32.76599522 26.55918906 -32.83032227 19.21533203 C-32.67556918 12.82041098 -30.82612896 8.86500345 -26.375 4.375 C-19.03005479 -2.04020531 -9.14478899 -4.26285135 0 0 Z " fill="#09C1C2" transform="translate(352.375,20.625)"/>
<path d="M0 0 C3.1363924 4.70458861 2.54632514 9.49472363 2 15 C0.23273716 21.64401346 -4.44970801 26.17577647 -10 30 C-13.73572916 31.85565632 -16.66176133 32.2250178 -20.8125 32.125 C-21.78832031 32.10695312 -22.76414062 32.08890625 -23.76953125 32.0703125 C-24.87361328 32.03550781 -24.87361328 32.03550781 -26 32 C-26 32.99 -26 33.98 -26 35 C-32.52006709 33.99162407 -37.54573407 30.8114356 -41.87890625 25.84765625 C-45.12859764 21.26676598 -46.76099355 17.61665155 -47 12 C-48.051875 11.87625 -49.10375 11.7525 -50.1875 11.625 C-53.45958771 11.08859218 -56.00536076 10.36119965 -59 9 C-54.52281208 6.01520806 -50.36175907 5 -45 5 C-44.67 3.68 -44.34 2.36 -44 1 C-43.67 1 -43.34 1 -43 1 C-42.96261719 2.01320312 -42.92523438 3.02640625 -42.88671875 4.0703125 C-42.82101612 5.42190939 -42.75457029 6.77347029 -42.6875 8.125 C-42.66494141 8.79015625 -42.64238281 9.4553125 -42.61914062 10.140625 C-42.2126109 17.67990356 -39.45309981 21.97740807 -34 27 C-33.67 27.33 -33.34 27.66 -33 28 C-29.77945916 28.27986267 -26.54374715 28.23185967 -23.3125 28.25 C-22.41337891 28.270625 -21.51425781 28.29125 -20.58789062 28.3125 C-15.31200706 28.3434663 -11.51609069 28.0460643 -7 25 C-5.61382611 23.03625365 -4.26987969 21.04087808 -3 19 C-2.34 19 -1.68 19 -1 19 C-0.67 12.73 -0.34 6.46 0 0 Z " fill="#00F3F1" transform="translate(363,33)"/>
<path d="M0 0 C1.8975 -0.061875 3.795 -0.12375 5.75 -0.1875 C7.35101563 -0.23970703 7.35101563 -0.23970703 8.984375 -0.29296875 C12.34387118 0.03340717 13.6814882 0.5761013 16 3 C16.46913089 7.37855495 16.46943529 9.29584707 14 13 C9.36297289 14.5456757 4.87528349 14.05735628 0 14 C0 9.38 0 4.76 0 0 Z " fill="#0E202C" transform="translate(72,31)"/>
<path d="M0 0 C1.8975 -0.061875 3.795 -0.12375 5.75 -0.1875 C7.35101563 -0.23970703 7.35101563 -0.23970703 8.984375 -0.29296875 C12.34503863 0.03352059 13.67828434 0.57854477 16 3 C16.74757282 8.98058252 16.74757282 8.98058252 14.625 11.875 C10.0880401 15.01597224 5.38604264 14.0626284 0 14 C0 9.38 0 4.76 0 0 Z " fill="#0E1D29" transform="translate(401,31)"/>
<path d="M0 0 C5.28534706 0.32032406 8.43220064 3.38726614 12 7 C14.1519437 10.22791555 14.20086443 11.28400809 14 15 C10.8125 15.8125 10.8125 15.8125 7 16 C3.97220823 13.57776658 2.14535991 11.21803987 0 8 C-0.25760279 5.30547479 -0.08900053 2.71451625 0 0 Z " fill="#0D6B72" transform="translate(327,43)"/>
<path d="M0 0 C-0.02148949 4.83513506 -0.25636883 8.82630298 -3.5625 12.5625 C-6.13593043 14.83538381 -7.95894199 15.3567972 -11.375 15.375 C-12.57125 15.25125 -13.7675 15.1275 -15 15 C-15.27440795 11.97623542 -15.27285439 10.42537692 -13.609375 7.83203125 C-12.99578125 7.16558594 -12.3821875 6.49914063 -11.75 5.8125 C-11.14671875 5.13832031 -10.5434375 4.46414062 -9.921875 3.76953125 C-6.53439199 0.65056824 -4.66504776 0 0 0 Z " fill="#105D65" transform="translate(358,43)"/>
<path d="M0 0 C0.70125 -0.01675781 1.4025 -0.03351562 2.125 -0.05078125 C2.74375 0.06910156 3.3625 0.18898437 4 0.3125 C6 3.3125 6 3.3125 5.8125 6.875 C5 10.3125 5 10.3125 2 12.3125 C-0.32387947 12.70637788 -2.65793749 13.04736085 -5 13.3125 C-6.625 11.75 -6.625 11.75 -8 9.3125 C-6.94856844 3.76858814 -6.08885619 0.03357825 0 0 Z " fill="#096B79" transform="translate(342,35.6875)"/>
<path d="M0 0 C1.93719378 -0.05406122 3.87481921 -0.09282025 5.8125 -0.125 C6.89144531 -0.14820313 7.97039063 -0.17140625 9.08203125 -0.1953125 C12 0 12 0 15 2 C15.3125 4.5 15.3125 4.5 15 7 C13 9 13 9 9.9609375 9.1953125 C8.77757812 9.17210937 7.59421875 9.14890625 6.375 9.125 C5.18648437 9.10695313 3.99796875 9.08890625 2.7734375 9.0703125 C1.85820312 9.04710937 0.94296875 9.02390625 0 9 C0 6.03 0 3.06 0 0 Z " fill="#0E1A26" transform="translate(28,48)"/>
<path d="M0 0 C2.12472576 -0.05386629 4.24983652 -0.09273071 6.375 -0.125 C7.55835938 -0.14820312 8.74171875 -0.17140625 9.9609375 -0.1953125 C13 0 13 0 15 2 C14.67028521 5.29714793 14.3773161 6.6226839 12 9 C9.1796875 9.1953125 9.1796875 9.1953125 5.875 9.125 C4.77929688 9.10695313 3.68359375 9.08890625 2.5546875 9.0703125 C1.71164063 9.04710937 0.86859375 9.02390625 0 9 C0 6.03 0 3.06 0 0 Z " fill="#0D2C37" transform="translate(27,31)"/>
<path d="M0 0 C0 1.32 0 2.64 0 4 C-1.8253125 4.0928125 -1.8253125 4.0928125 -3.6875 4.1875 C-6.98582949 4.62102821 -8.13241505 5.09103535 -11 7.0625 C-13.71036262 11.0433451 -13.40114376 13.26650367 -13 18 C-14.65 18 -16.3 18 -18 18 C-18.9988246 14.82726302 -19.48504209 13.22501388 -19 10 C-13.27297749 1.64909061 -9.76825586 -1.41797262 0 0 Z " fill="#0D878C" transform="translate(342,23)"/>
<path d="M0 0 C-0.43427485 4.92178161 -2.69095697 7.45459675 -6 11 C-9 13 -9 13 -13 13 C-13.3937494 9.71875504 -13.6709542 7.10863759 -11.91015625 4.19921875 C-8.23857937 0.11860678 -5.5997767 -0.6719732 0 0 Z " fill="#0F6A71" transform="translate(341,27)"/>
<path d="M0 0 C3.07396408 0.07088806 6.00442359 0.28170015 9 1 C12.27912726 4.48407271 12.54359454 8.34466431 13 13 C7.20626993 12.50339457 4.78359499 9.09111137 1.1875 4.875 C0 3 0 3 0 0 Z " fill="#106168" transform="translate(343,27)"/>
<path d="M0 0 C2.38125464 2.38125464 3.00186241 4.33857567 4.125 7.5 C4.65480469 8.96953125 4.65480469 8.96953125 5.1953125 10.46875 C6 13 6 13 6 15 C2.04 15 -1.92 15 -6 15 C-5.19093245 12.68624595 -4.37793083 10.37401052 -3.5625 8.0625 C-3.33240234 7.40314453 -3.10230469 6.74378906 -2.86523438 6.06445312 C-1.11328125 1.11328125 -1.11328125 1.11328125 0 0 Z " fill="#0E232E" transform="translate(126,34)"/>
<path d="M0 0 C3.1363924 4.70458861 2.54632514 9.49472363 2 15 C0.22358856 21.67840755 -4.48089117 26.09015904 -10 30 C-13.55290564 31.18430188 -16.80250456 31.18397858 -20.5 31.1875 C-21.51513672 31.20586914 -21.51513672 31.20586914 -22.55078125 31.22460938 C-26.26357044 31.23559396 -27.82983076 31.11344616 -31 29 C-29.15535156 28.94392578 -29.15535156 28.94392578 -27.2734375 28.88671875 C-25.64059599 28.82102972 -24.00778482 28.75458341 -22.375 28.6875 C-21.16263672 28.65366211 -21.16263672 28.65366211 -19.92578125 28.61914062 C-14.94297342 28.39633214 -11.29483647 27.78441997 -7 25 C-5.61382611 23.03625365 -4.26987969 21.04087808 -3 19 C-2.34 19 -1.68 19 -1 19 C-0.67 12.73 -0.34 6.46 0 0 Z " fill="#08C1C2" transform="translate(363,33)"/>
<path d="M0 0 C0 0.66 0 1.32 0 2 C-0.99 2.33 -1.98 2.66 -3 3 C-4.35573748 4.31054623 -5.68612831 5.64748503 -7 7 C-7.825 7.598125 -8.65 8.19625 -9.5 8.8125 C-12.64756726 11.56662135 -13.99807977 14.3413182 -16 18 C-16.66 18.33 -17.32 18.66 -18 19 C-18.33 19.99 -18.66 20.98 -19 22 C-19.66 22 -20.32 22 -21 22 C-18.95717788 13.59524614 -14.90609222 7.52358139 -7.75 2.5625 C-5.10398489 1.05908232 -3.07475498 0 0 0 Z " fill="#00EFED" transform="translate(337,16)"/>
<path d="M0 0 C2.5 0.25 2.5 0.25 4.5 2.25 C4.75 4.75 4.75 4.75 4.5 7.25 C2.5 9.25 2.5 9.25 0 9.5 C-2.5 9.25 -2.5 9.25 -4.5 7.25 C-4.75 4.75 -4.75 4.75 -4.5 2.25 C-2.5 0.25 -2.5 0.25 0 0 Z " fill="#095674" transform="translate(238.5,80.75)"/>
<path d="M0 0 C2.5 0.25 2.5 0.25 4.5 2.25 C4.75 4.75 4.75 4.75 4.5 7.25 C2.5 9.25 2.5 9.25 0 9.5 C-2.5 9.25 -2.5 9.25 -4.5 7.25 C-4.75 4.75 -4.75 4.75 -4.5 2.25 C-2.5 0.25 -2.5 0.25 0 0 Z " fill="#095674" transform="translate(37.5,80.75)"/>
<path d="M0 0 C4.17935564 -0.68234378 7.57020918 -0.99463709 11.15625 1.5 C14.44170321 4.94703288 16.42013339 7.63734925 16.4375 12.5 C16.293125 13.655 16.14875 14.81 16 16 C14.35 16 12.7 16 11 16 C11.66 15.67 12.32 15.34 13 15 C12.2713552 11.53574139 11.44511406 8.23941926 10 5 C7.15625345 3.27379121 7.15625345 3.27379121 4 3 C3.21625 2.79375 2.4325 2.5875 1.625 2.375 C1.08875 2.25125 0.5525 2.1275 0 2 C0 1.34 0 0.68 0 0 Z " fill="#0F8388" transform="translate(343,25)"/>
<path d="M0 0 C9.3292766 -0.89640736 9.3292766 -0.89640736 13.03125 1.08984375 C15.92707235 3.76564038 16.92161505 5.70213719 17.9375 9.5625 C17.99275155 12.60133515 17.79651945 15.07942869 17 18 C16.67 18 16.34 18 16 18 C15.95875 16.824375 15.9175 15.64875 15.875 14.4375 C15.30968393 10.14415361 13.83654913 7.49684541 10.8984375 4.34375 C7.56364528 1.98332094 3.98527268 1.93800687 0 2 C0 1.34 0 0.68 0 0 Z " fill="#0D9DA0" transform="translate(343,23)"/>
<path d="M0 0 C1.32 0 2.64 0 4 0 C4.33370045 6.45154197 3.77759039 10.64374494 -0.5 15.8125 C-3.24188123 17.98315597 -5.83716943 18.11742345 -9.1875 18.0625 C-11.0746875 18.0315625 -11.0746875 18.0315625 -13 18 C-13 17.34 -13 16.68 -13 16 C-11.1746875 15.9071875 -11.1746875 15.9071875 -9.3125 15.8125 C-6.07325675 15.38251196 -4.91876743 14.94349038 -2.125 13 C0.59958282 9.15353013 1.32750901 5.60706515 2 1 C1.34 0.67 0.68 0.34 0 0 Z " fill="#0D8C90" transform="translate(356,42)"/>
<path d="M0 0 C2.375 -0.125 2.375 -0.125 5 0 C7 2 7 2 7.25 4.5 C7 7 7 7 5 9 C2.375 9.125 2.375 9.125 0 9 C0 6.03 0 3.06 0 0 Z " fill="#085D7D" transform="translate(159,81)"/>
<path d="M0 0 C0.33 0.99 0.66 1.98 1 3 C-1.04074305 6.57130033 -2.55753136 8.7050209 -6 11 C-7.32 11 -8.64 11 -10 11 C-8.56314642 5.97101246 -6.05763331 4.04322498 -2 1 C-1.34 0.67 -0.68 0.34 0 0 Z " fill="#0F1E2A" transform="translate(354,43)"/>
<path d="M0 0 C1.90318884 2.85478326 2.4619099 4.41941308 3.125 7.6875 C3.29257812 8.49574219 3.46015625 9.30398438 3.6328125 10.13671875 C3.75398438 10.75160156 3.87515625 11.36648438 4 12 C1.69 12 -0.62 12 -3 12 C-2.14285714 3.42857143 -2.14285714 3.42857143 0 0 Z " fill="#19CDCD" transform="translate(342,4)"/>
<path d="M0 0 C0 2.31 0 4.62 0 7 C-4.3177458 6.49202991 -8.03302114 5.80317221 -12 4 C-8.36043372 1.57362248 -4.44144233 0 0 0 Z " fill="#18CBCC" transform="translate(316,38)"/>
<path d="M0 0 C3.55150592 0.30441479 4.97138802 0.97593993 7.75 3.3125 C9.78634065 5.74479578 10.6577784 6.92000563 11 10 C6.56156561 8.60506348 4.0565036 6.48101799 1 3 C0.67 2.01 0.34 1.02 0 0 Z " fill="#0F1F2B" transform="translate(344,30)"/>
<path d="M0 0 C1.65 0 3.3 0 5 0 C4.01 0.495 4.01 0.495 3 1 C3.28427417 2.58467728 3.57774818 4.1677057 3.875 5.75 C4.03742188 6.63171875 4.19984375 7.5134375 4.3671875 8.421875 C4.96796264 10.86947744 5.77997117 12.80599857 7 15 C5.0625 14.1875 5.0625 14.1875 3 13 C2.67 12.01 2.34 11.02 2 10 C1.34 10 0.68 10 0 10 C0 6.7 0 3.4 0 0 Z " fill="#0D8D92" transform="translate(324,42)"/>
<path d="M0 0 C5.01656959 1.4333056 7.01452882 3.90563952 10 8 C10 8.66 10 9.32 10 10 C6.50832834 9.70902736 5.23799325 9.24460417 2.75 6.6875 C1.20760276 4.31881853 0.40837087 2.75650336 0 0 Z " fill="#0E1C28" transform="translate(330,44)"/>
<path d="M0 0 C0.66 0 1.32 0 2 0 C2 1.65 2 3.3 2 5 C4.64 4.67 7.28 4.34 10 4 C10 4.99 10 5.98 10 7 C7.36 6.67 4.72 6.34 2 6 C2 9.3 2 12.6 2 16 C1.34 15.67 0.68 15.34 0 15 C0 10.05 0 5.1 0 0 Z " fill="#0CAEB1" transform="translate(322,36)"/>
<path d="M0 0 C2.31 0 4.62 0 7 0 C6.01 3.96 5.02 7.92 4 12 C3.34 11.67 2.68 11.34 2 11 C1.3671875 8.49609375 1.3671875 8.49609375 0.875 5.4375 C0.70742188 4.42558594 0.53984375 3.41367188 0.3671875 2.37109375 C0.24601562 1.58863281 0.12484375 0.80617188 0 0 Z " fill="#17D0D1" transform="translate(339,68)"/>
<path d="M0 0 C0.99 0.33 1.98 0.66 3 1 C3.05791844 4.12492251 3.09356746 7.24970766 3.125 10.375 C3.14175781 11.26445313 3.15851563 12.15390625 3.17578125 13.0703125 C3.18222656 13.92109375 3.18867188 14.771875 3.1953125 15.6484375 C3.20578613 16.43395996 3.21625977 17.21948242 3.22705078 18.02880859 C3 20 3 20 1 22 C0.67 14.74 0.34 7.48 0 0 Z " fill="#0BB1B3" transform="translate(360,30)"/>
<path d="M0 0 C4.11574371 0.4748935 7.36383344 1.0210244 11 3 C10.21753906 3.18175781 9.43507813 3.36351562 8.62890625 3.55078125 C7.61699219 3.80214844 6.60507812 4.05351563 5.5625 4.3125 C4.55316406 4.55613281 3.54382813 4.79976562 2.50390625 5.05078125 C1.67761719 5.36402344 0.85132813 5.67726563 0 6 C-0.33 6.99 -0.66 7.98 -1 9 C-1.33 7.68 -1.66 6.36 -2 5 C-1.34 5 -0.68 5 0 5 C0 3.35 0 1.7 0 0 Z " fill="#1DCFCF" transform="translate(369,39)"/>
<path d="M0 0 C0.33 0 0.66 0 1 0 C0.97851051 4.83513506 0.74363117 8.82630298 -2.5625 12.5625 C-5.13593043 14.83538381 -6.95894199 15.3567972 -10.375 15.375 C-11.57125 15.25125 -12.7675 15.1275 -14 15 C-14 13.35 -14 11.7 -14 10 C-13.67 10.99 -13.34 11.98 -13 13 C-8.39299045 12.72464739 -8.39299045 12.72464739 -4.375 10.75 C-2.74496581 8.67541103 -2.07899141 6.83097178 -1.3125 4.3125 C-1.06113281 3.50425781 -0.80976563 2.69601563 -0.55078125 1.86328125 C-0.36902344 1.24839844 -0.18726563 0.63351563 0 0 Z " fill="#0F747A" transform="translate(357,43)"/>
<path d="M0 0 C-0.45890625 0.35191406 -0.9178125 0.70382813 -1.390625 1.06640625 C-5.83872805 4.64544715 -8.44736238 7.89472477 -11 13 C-11.33 13 -11.66 13 -12 13 C-12.45796457 9.87057543 -12.50559016 7.76774802 -10.734375 5.078125 C-5.10738973 -1.53221692 -5.10738973 -1.53221692 0 0 Z " fill="#04BABC" transform="translate(334,23)"/>
<path d="M0 0 C-0.33 1.32 -0.66 2.64 -1 4 C-1 3.34 -1 2.68 -1 2 C-9.27049423 3.21874856 -9.27049423 3.21874856 -16 8 C-12.94502539 -0.24843145 -7.7823923 -1.74432931 0 0 Z " fill="#0B9EA1" transform="translate(342,23)"/>
<path d="M0 0 C1.423125 0.2784375 1.423125 0.2784375 2.875 0.5625 C5.89868793 1.28686632 5.89868793 1.28686632 8 0 C10.21138855 0.08811445 12.42042185 0.2429784 14.625 0.4375 C15.81351562 0.53933594 17.00203125 0.64117187 18.2265625 0.74609375 C19.14179688 0.82988281 20.05703125 0.91367187 21 1 C21 1.33 21 1.66 21 2 C17.37 2 13.74 2 10 2 C10 2.99 10 3.98 10 5 C6.05140217 4.4359146 3.29120954 3.2568294 0 1 C0 0.67 0 0.34 0 0 Z " fill="#03E0DF" transform="translate(327,63)"/>
<path d="M0 0 C0.99 0.33 1.98 0.66 3 1 C3.309375 1.94875 3.61875 2.8975 3.9375 3.875 C5.10610851 7.31208386 5.83667043 8.32529611 9 10 C10.32 10 11.64 10 13 10 C13 10.99 13 11.98 13 13 C4.78282209 11.44539877 4.78282209 11.44539877 2 8 C2 7.01 2 6.02 2 5 C1.34 5 0.68 5 0 5 C0 3.35 0 1.7 0 0 Z " fill="#0E5860" transform="translate(328,43)"/>
<path d="M0 0 C-1.55603771 3.81936528 -3.95604931 6.26044438 -7 9 C-7.66 9 -8.32 9 -9 9 C-8.70460812 5.45529741 -8.22373481 4.21784705 -5.625 1.6875 C-3 0 -3 0 0 0 Z " fill="#0E202B" transform="translate(340,30)"/>
<path d="M0 0 C1.65 1.32 3.3 2.64 5 4 C5.33 2.68 5.66 1.36 6 0 C6.66 0 7.32 0 8 0 C8 2.97 8 5.94 8 9 C7.34 9 6.68 9 6 9 C4.61767557 7.37373596 3.28062485 5.7074998 2 4 C1.67 5.65 1.34 7.3 1 9 C0.67 9 0.34 9 0 9 C0 6.03 0 3.06 0 0 Z " fill="#0490BF" transform="translate(302,81)"/>
<path d="M0 0 C1.65 0 3.3 0 5 0 C5.33 1.32 5.66 2.64 6 4 C5.01 4.66 4.02 5.32 3 6 C2.67 6.99 2.34 7.98 2 9 C1.34 9 0.68 9 0 9 C0 6.03 0 3.06 0 0 Z " fill="#06779E" transform="translate(116,81)"/>
<path d="M0 0 C-0.99 1.485 -0.99 1.485 -2 3 C-4.6015625 3.29296875 -4.6015625 3.29296875 -7.625 3.1875 C-9.12933594 3.14689453 -9.12933594 3.14689453 -10.6640625 3.10546875 C-11.82035156 3.05326172 -11.82035156 3.05326172 -13 3 C-13 2.01 -13 1.02 -13 0 C-11.20909747 -0.19466332 -9.41723495 -0.38051213 -7.625 -0.5625 C-6.12839844 -0.71912109 -6.12839844 -0.71912109 -4.6015625 -0.87890625 C-2 -1 -2 -1 0 0 Z " fill="#00FBF8" transform="translate(350,65)"/>
<path d="M0 0 C2.625 0.375 2.625 0.375 5 1 C4.67 1.66 4.34 2.32 4 3 C3.01 3 2.02 3 1 3 C1 3.66 1 4.32 1 5 C2.32 5 3.64 5 5 5 C4.67 5.99 4.34 6.98 4 8 C2.33388095 8.042721 0.66617115 8.04063832 -1 8 C-2 7 -2 7 -2.1875 4.5625 C-2 2 -2 2 0 0 Z " fill="#0C444F" transform="translate(340,38)"/>
<path d="M0 0 C1.10370043 3.3111013 0.92673641 5.24748949 0.5625 8.6875 C0.40974609 10.17830078 0.40974609 10.17830078 0.25390625 11.69921875 C0.12822266 12.83810547 0.12822266 12.83810547 0 14 C-0.33 13.34 -0.66 12.68 -1 12 C-1.66 12 -2.32 12 -3 12 C-3 9.36 -3 6.72 -3 4 C-2.34 4 -1.68 4 -1 4 C-0.67 2.68 -0.34 1.36 0 0 Z " fill="#01F9F6" transform="translate(319,34)"/>
<path d="M0 0 C2.97 0.495 2.97 0.495 6 1 C5.67 2.32 5.34 3.64 5 5 C3.68 5 2.36 5 1 5 C0.67 6.32 0.34 7.64 0 9 C0 6.03 0 3.06 0 0 Z " fill="#057FA8" transform="translate(253,81)"/>
<path d="M0 0 C3 3.625 3 3.625 3 7 C1.35 7 -0.3 7 -2 7 C-2 7.66 -2 8.32 -2 9 C-2.66 8.67 -3.32 8.34 -4 8 C-2.68 5.36 -1.36 2.72 0 0 Z " fill="#0582AC" transform="translate(103,81)"/>
<path d="M0 0 C2 1.375 2 1.375 4 3 C4 3.66 4 4.32 4 5 C6.97 5 9.94 5 13 5 C13 5.66 13 6.32 13 7 C9.8125 7.8125 9.8125 7.8125 6 8 C2.79917017 5.49500274 1.2872642 3.8617926 0 0 Z " fill="#0D797F" transform="translate(328,51)"/>
<path d="M0 0 C0.33 0 0.66 0 1 0 C1.33 4.62 1.66 9.24 2 14 C0.68 14.33 -0.64 14.66 -2 15 C-2.33 13.02 -2.66 11.04 -3 9 C-2.34 9 -1.68 9 -1 9 C-0.67 6.03 -0.34 3.06 0 0 Z " fill="#03DFDE" transform="translate(319,37)"/>
<path d="M0 0 C-1.134375 0.53625 -2.26875 1.0725 -3.4375 1.625 C-6.54629332 3.36742851 -6.89118154 3.62276269 -7.9375 7.25 C-7.958125 8.1575 -7.97875 9.065 -8 10 C-8.66 10 -9.32 10 -10 10 C-10.36658354 3.52369077 -10.36658354 3.52369077 -8.6875 1.125 C-5.49836354 -1.00109097 -3.53515605 -1.09711739 0 0 Z " fill="#0D545C" transform="translate(340,30)"/>
<path d="M0 0 C1.051875 0.2475 1.051875 0.2475 2.125 0.5 C5.13888194 1.02415338 7.94713625 1.07099683 11 1 C11 1.66 11 2.32 11 3 C6.545 3.495 6.545 3.495 2 4 C1.34 2.68 0.68 1.36 0 0 Z " fill="#0E9397" transform="translate(331,57)"/>
<path d="M0 0 C3.10331257 0.92260644 4.74711947 1.70497271 6.875 4.1875 C8.32502401 7.81256003 7.81163525 10.23696384 7 14 C6.67 14 6.34 14 6 14 C5.9071875 12.205625 5.9071875 12.205625 5.8125 10.375 C5.25087713 5.59269617 3.31005449 3.39492769 0 0 Z " fill="#0A9397" transform="translate(353,27)"/>
<path d="M0 0 C0 0.66 0 1.32 0 2 C-0.99 2.33 -1.98 2.66 -3 3 C-3.495 3.515625 -3.99 4.03125 -4.5 4.5625 C-6 6 -6 6 -9 6 C-9.99 6.495 -9.99 6.495 -11 7 C-10 4 -10 4 -8.22265625 2.83203125 C-7.50980469 2.49558594 -6.79695313 2.15914062 -6.0625 1.8125 C-5.35222656 1.46832031 -4.64195312 1.12414062 -3.91015625 0.76953125 C-2 0 -2 0 0 0 Z " fill="#01E0DF" transform="translate(337,16)"/>
<path d="M0 0 C0 2.31 0 4.62 0 7 C-1.32 6.67 -2.64 6.34 -4 6 C-3.67 4.68 -3.34 3.36 -3 2 C-3.66 1.67 -4.32 1.34 -5 1 C-2 0 -2 0 0 0 Z " fill="#35A5A9" transform="translate(316,38)"/>
<path d="M0 0 C0.66 0 1.32 0 2 0 C3.5078125 1.53125 3.5078125 1.53125 5.125 3.5 C5.66382813 4.1496875 6.20265625 4.799375 6.7578125 5.46875 C7.16773438 5.9740625 7.57765625 6.479375 8 7 C4.83119306 7 3.56310828 6.7941758 1 5 C0.25 2.375 0.25 2.375 0 0 Z " fill="#05A7AA" transform="translate(324,52)"/>
<path d="M0 0 C2.31 0 4.62 0 7 0 C6.34 1.32 5.68 2.64 5 4 C3.35 3.67 1.7 3.34 0 3 C0 2.01 0 1.02 0 0 Z " fill="#32B7B9" transform="translate(339,68)"/>
<path d="M0 0 C2 3.75 2 3.75 2 6 C-0.31 6 -2.62 6 -5 6 C-4.67 4.68 -4.34 3.36 -4 2 C-4 2.66 -4 3.32 -4 4 C-2.68 4 -1.36 4 0 4 C0 2.68 0 1.36 0 0 Z " fill="#30A8AB" transform="translate(344,10)"/>
<path d="M0 0 C2 1.625 2 1.625 4 4 C4.25 7.25 4.25 7.25 4 10 C2.68 9.67 1.36 9.34 0 9 C0.66 9 1.32 9 2 9 C1.34 6.03 0.68 3.06 0 0 Z " fill="#10747A" transform="translate(354,31)"/>
<path d="M0 0 C3.36591866 1.44253657 5.51047079 3.33264727 8 6 C7.67 6.99 7.34 7.98 7 9 C5.83037314 7.69013727 4.66437056 6.3770374 3.5 5.0625 C2.8503125 4.33160156 2.200625 3.60070312 1.53125 2.84765625 C0 1 0 1 0 0 Z " fill="#05A9AC" transform="translate(352,23)"/>
<path d="M0 0 C0.99 0.33 1.98 0.66 3 1 C2.67 1.99 2.34 2.98 2 4 C2.66 4.33 3.32 4.66 4 5 C2.35 5.66 0.7 6.32 -1 7 C-0.67 4.69 -0.34 2.38 0 0 Z " fill="#078F94" transform="translate(350,39)"/>
</svg>
