<svg xmlns="http://www.w3.org/2000/svg" width="150" height="150" viewBox="0 0 150 150">
  <g id="placeholder" transform="translate(11892 8246)">
    <rect id="Rectangle_17714" data-name="Rectangle 17714" width="150" height="150" transform="translate(-11892 -8246)" fill="#fff"/>
    <g id="logo" transform="translate(-11856.264 -8210.922)" opacity="0.5">
      <rect id="back" width="79.468" height="79.508" fill="none"/>
      <path id="Path_16339" data-name="Path 16339" d="M4.225,238.581a4.226,4.226,0,0,1-3.295-6.87l7.509-9.358a4.226,4.226,0,0,1,6.594,5.288L7.525,237a4.218,4.218,0,0,1-3.3,1.582Z" transform="translate(9.666 -161.261)" fill="#00b2ca"/>
      <path id="Path_16340" data-name="Path 16340" d="M90.186,91.675a14.862,14.862,0,1,1,11.321-24.5,3.169,3.169,0,0,1-.243,4.366l-5.873,5.515a3.17,3.17,0,1,1-4.341-4.62l3.279-3.08A8.524,8.524,0,1,0,96.7,82.317a3.17,3.17,0,0,1,4.837,4.1,14.848,14.848,0,0,1-11.35,5.261Z" transform="translate(-45.754 -44.389)" fill="#fa6e53"/>
      <path id="Path_16341" data-name="Path 16341" d="M43.73,62.144A31.072,31.072,0,1,1,67.4,10.932a4.228,4.228,0,0,1-6.439,5.481A22.622,22.622,0,1,0,61,45.681a4.227,4.227,0,0,1,6.452,5.462,31.04,31.04,0,0,1-23.725,11Z" transform="translate(0.358 1.199)" fill="#00b2ca"/>
    </g>
  </g>
</svg>
